<svg xmlns="http://www.w3.org/2000/svg" width="58" height="58" viewBox="0 0 58 58">
  <g id="Grupo_2" data-name="Grupo 2" transform="translate(-70 -216)">
    <circle id="Elipse_1" data-name="Elipse 1" cx="29" cy="29" r="29" transform="translate(70 216)" fill="#323834"/>
    <g id="Sin_título-3_copia" data-name="Sin título-3 copia" transform="translate(72.437 219.991)">
      <g id="Grupo_1" data-name="Grupo 1" transform="translate(7.061 11.707)">
        <path id="Trazado_1" data-name="Trazado 1" d="M30.837,15.893c.456.077.594-.3.706-.645.4-1.23.663-2.065.766-2.513.12-.49-.379-.929-.792-1a.92.92,0,0,0-1.067.688c-.034.465-.06,1.342-.069,2.633,0,.361,0,.757.456.835m-3.175-.379c.31-.052.387-.585.353-.826a10.839,10.839,0,0,1-.043-1.927.925.925,0,1,0-1.833.017,3.371,3.371,0,0,0,.189.852c.232.645.4,1.1.508,1.385a.685.685,0,0,0,.817.508" transform="translate(-9.722 -11.709)" fill="#fff"/>
        <path id="Trazado_2" data-name="Trazado 2" d="M22.856,16.511a.222.222,0,0,0,.189.086h.439a.249.249,0,0,0,.25-.2,2.033,2.033,0,0,0-.31-1.377.878.878,0,0,1-.095-.25c-.129-.482-.568-1.859-1.2-1.893a.967.967,0,0,0-.843,1.652c.7.895,1.222,1.549,1.566,1.979" transform="translate(-9.003 -11.871)" fill="#fff"/>
        <path id="Trazado_3" data-name="Trazado 3" d="M35.008,17.759a8.646,8.646,0,0,0,1.42-1.747c.112-.138.473-.611,1.1-1.446a2.476,2.476,0,0,0,.344-.6.288.288,0,0,0,0-.224c-.215-.594-.577-.964-1.256-.835a.192.192,0,0,0-.112.052,2.029,2.029,0,0,0-.533.62,17.6,17.6,0,0,0-.68,1.652,7.25,7.25,0,0,1-.37.8c-.138.267-.49,1.024-.4,1.291a.783.783,0,0,0,.344.43.148.148,0,0,0,.146,0" transform="translate(-10.89 -11.871)" fill="#fff"/>
        <path id="Trazado_4" data-name="Trazado 4" d="M20.192,19.188a.56.56,0,0,0-.112-.766c-.62-.611-1.282-1.3-1.988-2.082a7.393,7.393,0,0,0-.774-.74c-.327-.258-.585-.207-.99-.069a.878.878,0,0,0-.267,1.3,2.138,2.138,0,0,0,.327.31c.516.379,1.119.723,1.721,1.153.422.3,1.618,1.222,2.039.947a.146.146,0,0,0,.052-.052" transform="translate(-8.292 -12.225)" fill="#fff"/>
        <path id="Trazado_5" data-name="Trazado 5" d="M36.671,20.388a.485.485,0,0,0,.671.06c.568-.37,1.033-.7,1.394-.964q.232-.181.774-.516c.155-.095.4-.275.757-.533.731-.542,1.4-1.007,2-1.4a.638.638,0,0,0,.232-.353.957.957,0,0,0-1.661-.895L38.8,17.849c-.663.706-1.377,1.368-2.057,2.065a.356.356,0,0,0-.112.387.187.187,0,0,0,.043.069" transform="translate(-11.184 -12.228)" fill="#fff"/>
        <path id="Trazado_6" data-name="Trazado 6" d="M28.253,21.937c.017.155.12.654.31.757a.169.169,0,0,0,.258-.129v-.12c-.129-1.532-.215-2.857-.275-3.993-.017-.318-.12-1.007-.4-1.2a.542.542,0,0,0-.766.034c-.4.37-.232.792-.077,1.325.2.688.318,1.239.516,1.807.1.3.215.731.344,1.282a.514.514,0,0,0,.069.163.593.593,0,0,1,.026.069m2.143-.99c.155-.447.379-1.144.663-2.082.146-.482.275-.972-.2-1.308a.62.62,0,0,0-.955.49c-.052.473-.086,1.007-.112,1.6-.017.465-.052.912-.095,1.334-.043.465-.077.912-.086,1.334a1.4,1.4,0,0,0,.026.336.152.152,0,0,0,.189.129c.207-.069.25-.456.318-.723.095-.361.138-.766.258-1.11M27.591,23a.235.235,0,0,0,.052-.275c-.663-1.471-1.033-2.3-1.119-2.47-.181-.387-.318-.688-.4-.912a6.219,6.219,0,0,0-.525-1.041.617.617,0,0,0-.878-.258c-.3.155-.525.542-.318.835.387.551.645.852.955,1.36.456.749,1.084,1.385,1.566,2.117.129.189.267.4.422.628a.151.151,0,0,0,.232.026h0" transform="translate(-9.47 -12.461)" fill="#fff"/>
        <path id="Trazado_7" data-name="Trazado 7" d="M31.861,23.469a.559.559,0,0,0,.241-.2c.232-.31.5-.68.792-1.1.37-.542.783-1.033,1.187-1.557a4.108,4.108,0,0,0,.422-.663.361.361,0,0,0,.017-.284c-.112-.284-.482-.731-.826-.533a1.526,1.526,0,0,0-.671.895c-.25.551-.43.972-.533,1.265a1.918,1.918,0,0,1-.129.293c-.12.258-.189.5-.31.74a2.4,2.4,0,0,0-.361,1.05.143.143,0,0,0,.181.1" transform="translate(-10.496 -12.736)" fill="#fff"/>
        <path id="Trazado_8" data-name="Trazado 8" d="M17.785,22.647c.069-.181-.129-.344-.267-.422-.37-.207-.852-.447-1.428-.723-2.048-.955-3.364-1.566-3.967-1.841a.973.973,0,0,0-1.11.129.845.845,0,0,0-.052,1.334,2.334,2.334,0,0,0,.749.361c.456.189,1.041.3,1.446.439.31.1.7.146.964.224,1.067.31,2.022.568,2.857.783.37.095.663.095.8-.284" transform="translate(-7.563 -12.801)" fill="#fff"/>
        <path id="Trazado_9" data-name="Trazado 9" d="M37.553,23.963h.138c.439-.1.9-.224,1.4-.387.594-.189,1.05-.327,1.385-.422.852-.241,1.773-.516,2.753-.817.181-.06.886-.25,2.108-.577a5.241,5.241,0,0,0,.525-.163c.318-.138.723-.2.938-.456.138-.172.37-.525.3-.766a1.04,1.04,0,0,0-1.2-.749,3.954,3.954,0,0,0-.723.241c-.533.25-1.308.594-2.306,1.033q-1.936.852-3.33,1.446c-.361.155-.706.318-1.041.482-.353.181-.714.31-1.11.508a.151.151,0,0,0-.069.172l.129.379a.135.135,0,0,0,.095.086" transform="translate(-11.283 -12.809)" fill="#fff"/>
        <path id="Trazado_10" data-name="Trazado 10" d="M22.391,20.159a1.145,1.145,0,0,0-.611.43.636.636,0,0,0,.232.817c.387.267.878.568,1.273.852.86.62,1.377.99,1.566,1.11q.194.129.878.516c.026.017.043.026.069.043a3.1,3.1,0,0,0,.37.275.177.177,0,0,0,.241-.052c.086-.12-.069-.31-.172-.4a6.6,6.6,0,0,1-.654-.594c-.387-.422-.9-.972-1.549-1.635a14.258,14.258,0,0,0-1.368-1.282.321.321,0,0,0-.267-.086" transform="translate(-9.105 -12.886)" fill="#fff"/>
        <path id="Trazado_11" data-name="Trazado 11" d="M32.608,24.387a.116.116,0,0,0,.077.163c.207.06.551-.189.792-.344.774-.49,1.463-.921,2.074-1.291a.892.892,0,0,0,.508-.723.49.49,0,0,0-.4-.559c-.473-.138-.757.12-1.041.439-.43.49-.74.852-.947,1.067q-.207.232-.258.284c-.181.207-.353.4-.525.585a1.615,1.615,0,0,0-.267.379" transform="translate(-10.623 -13.087)" fill="#fff"/>
        <path id="Trazado_12" data-name="Trazado 12" d="M25.637,25.522a.215.215,0,0,0-.12-.25c-.181-.069-.353-.138-.508-.189-.043-.017-.533-.25-1.48-.7-.336-.163-.714-.353-1.127-.577-.284-.155-.663-.344-1.144-.568a.7.7,0,0,0-.947.155.825.825,0,0,0-.086.7.555.555,0,0,0,.413.353c.516.163,1.067.31,1.661.439.181.034.4.146.611.189.688.172,1.377.353,2.065.525a1.415,1.415,0,0,0,.525.052c.069,0,.112-.052.129-.129" transform="translate(-8.892 -13.301)" fill="#fff"/>
        <path id="Trazado_13" data-name="Trazado 13" d="M36.377,24.273a1.445,1.445,0,0,0-1.454.275c-.577.361-1.058.645-1.454.843-.112.06-.336.232-.318.361a.169.169,0,0,0,.172.138,2.643,2.643,0,0,0,.577-.043c.516-.1,1.17-.215,1.953-.336a1.531,1.531,0,0,0,.508-.163c.3-.163.215-.723.12-.981a.186.186,0,0,0-.095-.1" transform="translate(-10.701 -13.446)" fill="#fff"/>
        <path id="Trazado_14" data-name="Trazado 14" d="M16.785,27.317a.617.617,0,0,0-.026-.551.374.374,0,0,0-.052-.06.8.8,0,0,0-.482-.189c-1.17.009-2.349-.1-3.511-.207-.594-.052-1.514-.095-2.745-.12-.3,0-.568-.017-.809-.026-.482-.026-.749-.034-.809-.034a2.511,2.511,0,0,0-.783.077.846.846,0,0,0-.43,1.084c.1.232.258.559.49.594a2.487,2.487,0,0,0,.379.017c.921-.034,1.824-.052,2.719-.06.284,0,1.11-.06,2.5-.163.43-.034,1.454-.086,3.08-.146.25-.009.4-.052.456-.129a.173.173,0,0,0,.034-.069" transform="translate(-7.063 -13.72)" fill="#fff"/>
        <path id="Trazado_15" data-name="Trazado 15" d="M46.753,27.4a1.131,1.131,0,0,0,.654.224,29,29,0,0,0,3.1.267c.379.009.688.034.878-.267a.9.9,0,0,0,.034-1.067.942.942,0,0,0-.955-.447c-1.153.077-1.962.138-2.427.189a8.091,8.091,0,0,0-1.05.189.349.349,0,0,0-.293.267.937.937,0,0,0,0,.577.187.187,0,0,0,.043.069" transform="translate(-12.584 -13.717)" fill="#fff"/>
        <path id="Trazado_16" data-name="Trazado 16" d="M19.67,27.126a.67.67,0,0,0,.783.688c1.317-.112,2.779-.258,4.388-.447.146-.017.568-.077.568-.267s-.422-.241-.568-.258q-2.414-.258-4.388-.413a.672.672,0,0,0-.783.7" transform="translate(-8.82 -13.761)" fill="#fff"/>
        <path id="Trazado_17" data-name="Trazado 17" d="M34.354,27.342a10.958,10.958,0,0,1,1.945.112c.232.026.387.034.456.043.422.017.749.052,1.144.052.31,0,.723.043.964.052.077,0,.723.026,1.927.069.189,0,.585.034,1.179.077.37.026.757.043,1.179.034a.578.578,0,0,0,.585-.508c.052-.439-.069-.766-.585-.783-.809-.017-1.738.086-2.5.077-.508,0-1.3.034-2.366.112q-1.007.077-3.82.232a.284.284,0,0,0-.267.215v.017a.158.158,0,0,0,.163.207" transform="translate(-10.846 -13.77)" fill="#fff"/>
        <path id="Trazado_18" data-name="Trazado 18" d="M20.331,29.862a.687.687,0,0,0,.964.886c.981-.447,1.876-.835,2.831-1.342.456-.25.955-.49,1.489-.723a.126.126,0,0,0,.026-.215A.433.433,0,0,0,25.3,28.4c-.551.069-1.127.267-1.7.4q-2.13.5-2.788.7a1.223,1.223,0,0,0-.447.3.187.187,0,0,0-.043.069" transform="translate(-8.905 -14.036)" fill="#fff"/>
        <path id="Trazado_19" data-name="Trazado 19" d="M33.83,28.634a.2.2,0,0,0,.129.2c.275.12.508.232.7.327a5.287,5.287,0,0,0,.688.327c.31.1.6.293.964.43.938.353,1.506.577,1.7.663,1.058.49,2.1.938,3.115,1.36a.579.579,0,0,0,.688-.112c.792-.8-.379-1.2-.938-1.342-.714-.181-1.463-.456-2.057-.62-.37-.1-.792-.232-1.256-.379-1.1-.353-2.254-.688-3.442-1-.163-.043-.258,0-.275.146" transform="translate(-10.796 -14.047)" fill="#fff"/>
        <path id="Trazado_20" data-name="Trazado 20" d="M26.357,29.527a.249.249,0,0,0-.267.052c-.6.465-1.291.929-2.048,1.4-.465.293-.8.508-1.007.663-.551.4-.869.645-.972.723a.43.43,0,0,0-.146.473c.06.258.163.568.465.62a.708.708,0,0,0,.594-.163,8.493,8.493,0,0,0,.964-.912c.344-.379.723-.766,1.127-1.162.25-.241.516-.551.792-.852a4.453,4.453,0,0,0,.542-.6.177.177,0,0,0-.034-.258" transform="translate(-9.131 -14.191)" fill="#fff"/>
        <path id="Trazado_21" data-name="Trazado 21" d="M33.09,29.813a.391.391,0,0,0,.129.275c.189.207.482.49.878.869.344.318.594.645.929.947q.258.232.671.671l.7.7c.594.585,1.291,1.17,1.773,1.618a.318.318,0,0,0,.207.086,1.445,1.445,0,0,0,.568-.112.251.251,0,0,0,.155-.155.9.9,0,0,0-.439-1.076q-.542-.4-2.659-1.91c-.447-.318-1.007-.757-1.342-1-.387-.267-.792-.645-1.222-.912a.64.64,0,0,0-.232-.1.091.091,0,0,0-.1.086" transform="translate(-10.693 -14.219)" fill="#fff"/>
        <path id="Trazado_22" data-name="Trazado 22" d="M27.678,30.553a.107.107,0,0,0-.112-.1.223.223,0,0,0-.181.1c-.215.258-.5.628-.869,1.11-.172.215-.267.413-.43.6a4.28,4.28,0,0,0-.336.439q-.31.478-.9,1.265c-.017.026-.034.06-.052.086a2.017,2.017,0,0,1-.232.379c-.241.3-.361.706,0,.964a1,1,0,0,0,.473.2c.344.026.62-.439.749-.714.473-1.041.852-1.884,1.153-2.547.181-.387.413-.912.714-1.575a.676.676,0,0,0,.043-.215" transform="translate(-9.471 -14.323)" fill="#fff"/>
        <path id="Trazado_23" data-name="Trazado 23" d="M32.033,30.55a.158.158,0,0,0-.163.189,2.231,2.231,0,0,0,.207.577q.452.916.9,1.859c.232.482.4.964.62,1.368.25.465.516,1.015.809,1.635a1.509,1.509,0,0,0,.336.473c.155.12.585.043.74,0,.026,0,.043-.017.069-.034.31-.275.172-.774-.034-1.067-.413-.577-.783-1.144-1.119-1.7-.086-.138-.3-.447-.663-.921-.568-.74-1.076-1.54-1.523-2.237a.246.246,0,0,0-.172-.129" transform="translate(-10.522 -14.336)" fill="#fff"/>
        <path id="Trazado_24" data-name="Trazado 24" d="M17.967,31.192a.428.428,0,0,0-.361-.465,1.461,1.461,0,0,0-.637.077c-.921.275-1.566.465-1.936.559-.809.2-1.824.465-3.063.8-.112.034-.241.069-.387.12a1.285,1.285,0,0,0-.628.327.863.863,0,0,0-.026,1.256c.353.439,1.093.31,1.532.086.972-.482,2.031-.972,3.149-1.454.379-.163.671-.3.886-.422.473-.258.895-.422,1.325-.645a.272.272,0,0,0,.146-.241" transform="translate(-7.564 -14.359)" fill="#fff"/>
        <path id="Trazado_25" data-name="Trazado 25" d="M28.977,30.887a.2.2,0,0,0-.12.129,3.029,3.029,0,0,0-.181.706.162.162,0,0,1-.017.069c-.207.6-.379,1.17-.508,1.7-.189.792-.456,1.514-.663,2.229a.861.861,0,0,0,.241,1.05.467.467,0,0,0,.344.095c.508-.043.7-.267.74-.757.086-.9.138-1.463.163-1.669.095-.766.112-1.7.181-2.521a5.378,5.378,0,0,0,0-.912.148.148,0,0,0-.181-.138m1.317,3.123c.026.525.052,1.084.1,1.678.043.533.077,1.514.68,1.669a.373.373,0,0,0,.215.009.75.75,0,0,0,.533-.964,10.069,10.069,0,0,0-.232-1c-.146-.422-.232-.886-.327-1.256-.284-1.05-.551-2.031-.8-2.951a.536.536,0,0,0-.155-.267.125.125,0,0,0-.189.043.911.911,0,0,0-.077.318v.06A13.674,13.674,0,0,1,30.276,34v.017h0v-.026h0" transform="translate(-9.901 -14.381)" fill="#fff"/>
        <path id="Trazado_26" data-name="Trazado 26" d="M44.494,32.481c-.12.336.095.594.379.774.413.258.955.551,1.626.886a1.865,1.865,0,0,0,.749.25.925.925,0,0,0,.585-1.618,1.845,1.845,0,0,0-.74-.293,18.126,18.126,0,0,0-1.816-.353c-.327-.043-.663.017-.783.353" transform="translate(-12.279 -14.555)" fill="#fff"/>
        <path id="Trazado_27" data-name="Trazado 27" d="M19.965,34.28a1.608,1.608,0,0,0-.671.3c-.447.31-1.093.723-1.927,1.248-.172.112-.353.275-.482.344-.68.344-1.351.86-.835,1.721.189.318.482.336.852.353.387.017.774-.447,1.041-.731q.826-.916,1.7-1.781c.25-.25.413-.43.508-.533.25-.293.344-.766-.1-.9a.287.287,0,0,0-.086,0" transform="translate(-8.289 -14.857)" fill="#fff"/>
        <path id="Trazado_28" data-name="Trazado 28" d="M40.724,36.38c-.241.293-.207.637.112,1.024.189.232.37.465.568.688a1,1,0,0,0,1.532.163c.009,0,.017-.017.026-.026a.124.124,0,0,1,.017-.026,1.011,1.011,0,0,0-.439-1.48c-.258-.146-.516-.293-.774-.43q-.671-.361-1.033.077" transform="translate(-11.736 -15.115)" fill="#fff"/>
        <path id="Trazado_29" data-name="Trazado 29" d="M23.782,37.422a.238.238,0,0,0-.138-.207.709.709,0,0,0-.895.163q-.852.981-1.652,2.065c-.336.456-.009.972.344,1.291.017.009.026.026.043.026a.82.82,0,0,0,1.119-.232,4.206,4.206,0,0,0,.637-1.377,1.674,1.674,0,0,1,.069-.189c.112-.25.232-.551.361-.895a1.614,1.614,0,0,0,.112-.654" transform="translate(-9 -15.255)" fill="#fff"/>
        <path id="Trazado_30" data-name="Trazado 30" d="M36.759,38.59c-.43.017-.886.241-.8.757a2.871,2.871,0,0,0,.6,1.523c.559.533,1.273.138,1.566-.473.25-.516-.826-1.635-1.291-1.79a.238.238,0,0,0-.077-.009" transform="translate(-11.091 -15.458)" fill="#fff"/>
        <path id="Trazado_31" data-name="Trazado 31" d="M27.45,38.685c-.241-.1-.465.086-.585.284a6.531,6.531,0,0,0-.585,1.3c-.189.551-.327,1.024.077,1.463a.86.86,0,0,0,1.532-.413,15.623,15.623,0,0,0,.06-1.9.734.734,0,0,0-.49-.731" transform="translate(-9.717 -15.468)" fill="#fff"/>
        <path id="Trazado_32" data-name="Trazado 32" d="M32.341,39.509a.753.753,0,0,0-1.015.017.244.244,0,0,0-.069.095,4.427,4.427,0,0,0-.129,1.626.855.855,0,0,0,.731.886c.327.043.774.026.947-.293a1.1,1.1,0,0,0,.138-.947c-.095-.344-.138-.516-.138-.516a.893.893,0,0,1-.034-.086l-.31-.654a.438.438,0,0,0-.112-.138" transform="translate(-10.416 -15.56)" fill="#fff"/>
        <path id="Trazado_33" data-name="Trazado 33" d="M32.206,11.728c.413.069.912.508.792,1-.112.447-.37,1.291-.766,2.513-.112.344-.241.723-.706.645s-.465-.473-.456-.835c0-1.291.034-2.168.069-2.633a.92.92,0,0,1,1.067-.688h0Z" transform="translate(-10.41 -11.709)" fill="#fff"/>
        <path id="Trazado_34" data-name="Trazado 34" d="M27.663,15.513a.678.678,0,0,1-.817-.508c-.1-.275-.275-.74-.508-1.385a3.371,3.371,0,0,1-.189-.852.925.925,0,1,1,1.833-.017,9.394,9.394,0,0,0,.043,1.927c.034.241-.043.774-.353.826h0Z" transform="translate(-9.723 -11.707)" fill="#fff"/>
        <path id="Trazado_35" data-name="Trazado 35" d="M22.857,16.511c-.353-.422-.869-1.084-1.566-1.979a1.008,1.008,0,0,1-.267-.955.983.983,0,0,1,1.11-.7c.628.034,1.067,1.411,1.2,1.893a1.244,1.244,0,0,0,.095.25,2.082,2.082,0,0,1,.31,1.377.258.258,0,0,1-.25.2h-.439a.247.247,0,0,1-.189-.086h0Z" transform="translate(-9.004 -11.871)" fill="#fff"/>
        <path id="Trazado_36" data-name="Trazado 36" d="M35.008,17.76a.117.117,0,0,1-.146,0,.823.823,0,0,1-.344-.43c-.086-.267.267-1.024.4-1.291a7.25,7.25,0,0,0,.37-.8,17.594,17.594,0,0,1,.68-1.652,2.134,2.134,0,0,1,.533-.62.192.192,0,0,1,.112-.052c.68-.138,1.041.241,1.256.835a.333.333,0,0,1,0,.224,2.794,2.794,0,0,1-.344.6c-.62.826-.99,1.308-1.1,1.446a8.364,8.364,0,0,1-1.42,1.747h0Z" transform="translate(-10.89 -11.872)" fill="#fff"/>
        <path id="Trazado_37" data-name="Trazado 37" d="M20.139,19.251c-.422.275-1.618-.645-2.039-.947-.6-.43-1.2-.774-1.721-1.153a2.166,2.166,0,0,1-.327-.31.887.887,0,0,1,.267-1.3.91.91,0,0,1,.99.069,7.393,7.393,0,0,1,.774.74c.714.774,1.377,1.471,1.988,2.082a.561.561,0,0,1,.112.766.1.1,0,0,1-.052.052h0Z" transform="translate(-8.291 -12.227)" fill="#fff"/>
        <path id="Trazado_38" data-name="Trazado 38" d="M36.627,20.312a.381.381,0,0,1,.112-.387c.68-.7,1.385-1.36,2.057-2.065q.039-.052,2.039-2.065a.957.957,0,0,1,1.661.895.608.608,0,0,1-.232.353c-.6.4-1.273.86-2,1.4-.353.258-.6.439-.757.533q-.529.336-.774.516c-.353.275-.817.594-1.394.964a.493.493,0,0,1-.671-.06.187.187,0,0,1-.043-.069h0Z" transform="translate(-11.184 -12.23)" fill="#fff"/>
        <path id="Trazado_39" data-name="Trazado 39" d="M28.682,21.87a.514.514,0,0,1-.069-.163c-.129-.551-.241-.972-.344-1.282-.2-.577-.31-1.127-.516-1.807-.155-.533-.31-.964.077-1.325a.558.558,0,0,1,.766-.034c.284.2.387.886.4,1.2.06,1.136.146,2.461.275,3.993v.12a.173.173,0,0,1-.258.129c-.189-.112-.293-.6-.31-.757a.114.114,0,0,0-.026-.069h0Z" transform="translate(-9.925 -12.463)" fill="#fff"/>
        <path id="Trazado_40" data-name="Trazado 40" d="M31.252,20.992c-.12.344-.163.749-.258,1.11-.069.267-.112.654-.318.723a.152.152,0,0,1-.189-.129,2.045,2.045,0,0,1-.026-.336c.009-.422.043-.869.086-1.334.043-.422.077-.86.095-1.334.026-.594.06-1.127.112-1.6a.618.618,0,0,1,.955-.49c.473.327.344.826.2,1.308-.284.938-.5,1.635-.663,2.082h0Z" transform="translate(-10.326 -12.514)" fill="#fff"/>
        <path id="Trazado_41" data-name="Trazado 41" d="M27.592,23.141h0a.151.151,0,0,1-.232-.026c-.155-.224-.293-.439-.422-.628-.482-.723-1.11-1.36-1.566-2.117-.31-.516-.568-.817-.955-1.36a.6.6,0,0,1,.318-.835.617.617,0,0,1,.878.258,6.564,6.564,0,0,1,.525,1.041,8.6,8.6,0,0,0,.4.912c.086.172.456,1,1.119,2.47a.25.25,0,0,1-.052.275h0Z" transform="translate(-9.471 -12.598)" fill="#fff"/>
        <path id="Trazado_42" data-name="Trazado 42" d="M31.86,23.467a.137.137,0,0,1-.181-.1,2.472,2.472,0,0,1,.361-1.05c.12-.241.189-.49.31-.74.052-.12.095-.215.129-.293.1-.293.284-.714.533-1.265a1.6,1.6,0,0,1,.671-.895c.353-.2.723.25.826.533a.361.361,0,0,1-.017.284,4.108,4.108,0,0,1-.422.663c-.4.525-.809,1.015-1.187,1.557-.293.422-.551.792-.792,1.1a.559.559,0,0,1-.241.2h0Z" transform="translate(-10.495 -12.735)" fill="#fff"/>
        <path id="Trazado_43" data-name="Trazado 43" d="M17.786,22.647c-.138.379-.439.379-.8.284-.835-.215-1.781-.473-2.857-.783-.275-.077-.663-.12-.964-.224-.4-.138-.99-.25-1.446-.439a2.334,2.334,0,0,1-.749-.361.845.845,0,0,1,.052-1.334.973.973,0,0,1,1.11-.129c.6.275,1.919.886,3.967,1.841.577.267,1.058.508,1.428.723.138.077.336.241.267.422h0Z" transform="translate(-7.564 -12.801)" fill="#fff"/>
        <path id="Trazado_44" data-name="Trazado 44" d="M37.552,23.962a.121.121,0,0,1-.095-.086l-.129-.379a.133.133,0,0,1,.069-.172c.4-.207.757-.336,1.11-.508.336-.172.688-.327,1.041-.482q1.394-.594,3.33-1.446c1-.439,1.773-.783,2.306-1.033a3.393,3.393,0,0,1,.723-.241,1.057,1.057,0,0,1,1.2.749c.06.241-.163.594-.3.766-.215.258-.62.318-.938.456a5.241,5.241,0,0,1-.525.163c-1.222.327-1.927.525-2.108.577-.99.3-1.91.577-2.753.817-.336.095-.792.232-1.385.422-.49.155-.955.284-1.4.387a.37.37,0,0,1-.138,0h0Z" transform="translate(-11.283 -12.808)" fill="#fff"/>
        <path id="Trazado_45" data-name="Trazado 45" d="M22.389,20.159a.3.3,0,0,1,.267.086,12.456,12.456,0,0,1,1.368,1.282c.645.663,1.162,1.213,1.549,1.635a7.8,7.8,0,0,0,.654.594c.1.086.258.275.172.4a.187.187,0,0,1-.241.052c-.095-.06-.215-.155-.37-.275a.187.187,0,0,0-.069-.043q-.684-.387-.878-.516c-.181-.12-.706-.49-1.566-1.11-.4-.284-.886-.585-1.273-.852a.636.636,0,0,1-.232-.817,1.193,1.193,0,0,1,.611-.43h0Z" transform="translate(-9.104 -12.886)" fill="#fff"/>
        <path id="Trazado_46" data-name="Trazado 46" d="M32.607,24.387a1.327,1.327,0,0,1,.267-.379c.172-.189.344-.379.525-.585q.052-.052.258-.284c.207-.224.516-.577.947-1.067.284-.327.568-.585,1.041-.439a.494.494,0,0,1,.4.559.892.892,0,0,1-.508.723c-.6.379-1.291.809-2.074,1.291-.241.155-.585.4-.792.344a.121.121,0,0,1-.077-.163h0Z" transform="translate(-10.623 -13.086)" fill="#fff"/>
        <path id="Trazado_47" data-name="Trazado 47" d="M25.637,25.522q-.026.129-.129.129a1.447,1.447,0,0,1-.525-.052c-.688-.181-1.377-.353-2.065-.525-.207-.052-.43-.155-.611-.189-.594-.129-1.144-.275-1.661-.439a.555.555,0,0,1-.413-.353.769.769,0,0,1,.086-.7.7.7,0,0,1,.947-.155c.473.224.852.4,1.144.568.413.224.792.422,1.127.577.938.447,1.437.68,1.48.7.155.06.318.12.508.189a.211.211,0,0,1,.12.25h0Z" transform="translate(-8.893 -13.301)" fill="#fff"/>
        <path id="Trazado_48" data-name="Trazado 48" d="M36.375,24.274a.219.219,0,0,1,.095.1c.095.25.181.817-.12.981a1.531,1.531,0,0,1-.508.163c-.783.12-1.437.232-1.953.336a2.6,2.6,0,0,1-.577.043.169.169,0,0,1-.172-.138c-.017-.138.207-.31.318-.361.4-.207.878-.49,1.454-.843a1.448,1.448,0,0,1,1.454-.275h0Z" transform="translate(-10.699 -13.447)" fill="#fff"/>
        <path id="Trazado_49" data-name="Trazado 49" d="M16.749,27.383c-.052.077-.2.12-.456.129-1.626.069-2.65.12-3.08.146-1.385.112-2.22.163-2.5.163-.895.009-1.8.034-2.719.06a2.545,2.545,0,0,1-.379-.017c-.232-.034-.387-.361-.49-.594a.838.838,0,0,1,.43-1.084,2.88,2.88,0,0,1,.783-.077c.052,0,.327.009.809.034.241.009.508.017.809.026,1.23.026,2.151.069,2.745.12,1.162.1,2.34.215,3.511.207a.82.82,0,0,1,.482.189.116.116,0,0,1,.052.06.617.617,0,0,1,.026.551.258.258,0,0,1-.034.069h0Z" transform="translate(-7.061 -13.717)" fill="#fff"/>
        <path id="Trazado_50" data-name="Trazado 50" d="M46.712,27.331a.824.824,0,0,1,0-.577A.36.36,0,0,1,47,26.488a8.09,8.09,0,0,1,1.05-.189c.465-.052,1.273-.112,2.427-.189a.949.949,0,0,1,.955.447.918.918,0,0,1-.034,1.067c-.189.3-.508.284-.878.267-.929-.026-1.962-.12-3.1-.267a1.022,1.022,0,0,1-.654-.224.187.187,0,0,1-.043-.069h0Z" transform="translate(-12.586 -13.717)" fill="#fff"/>
        <path id="Trazado_51" data-name="Trazado 51" d="M25.419,27.1c0,.189-.422.25-.568.267-1.609.189-3.072.336-4.388.447a.666.666,0,0,1-.783-.688.676.676,0,0,1,.783-.7q1.975.142,4.388.413c.146.017.568.069.568.258Z" transform="translate(-8.821 -13.761)" fill="#fff"/>
        <path id="Trazado_52" data-name="Trazado 52" d="M34.352,27.34a.16.16,0,0,1-.163-.207v-.017a.315.315,0,0,1,.275-.215q2.814-.155,3.82-.232c1.067-.086,1.859-.12,2.366-.112.757.009,1.687-.095,2.5-.077.516.017.637.344.585.783a.571.571,0,0,1-.585.508c-.422,0-.817-.009-1.179-.034-.594-.043-.99-.069-1.179-.077-1.2-.043-1.85-.06-1.927-.069-.241-.009-.654-.052-.964-.052-.4,0-.723-.034-1.144-.052-.069,0-.224-.017-.456-.043a10.917,10.917,0,0,0-1.945-.112h0Z" transform="translate(-10.845 -13.768)" fill="#fff"/>
        <path id="Trazado_53" data-name="Trazado 53" d="M20.375,29.793a1.223,1.223,0,0,1,.447-.3q.645-.194,2.788-.7a15.531,15.531,0,0,1,1.7-.4.433.433,0,0,1,.344.069.126.126,0,0,1-.026.215c-.533.232-1.033.473-1.489.723-.955.508-1.85.895-2.831,1.342a.686.686,0,0,1-.964-.886.187.187,0,0,1,.043-.069h0Z" transform="translate(-8.906 -14.036)" fill="#fff"/>
        <path id="Trazado_54" data-name="Trazado 54" d="M33.828,28.634c.017-.146.112-.189.275-.146,1.187.31,2.332.637,3.442,1,.465.146.878.275,1.256.379.6.163,1.342.439,2.057.62.559.146,1.73.551.938,1.342a.576.576,0,0,1-.688.112c-1.015-.413-2.057-.869-3.115-1.36-.189-.086-.757-.31-1.7-.663-.361-.138-.645-.318-.964-.43-.1-.034-.327-.146-.688-.327-.181-.095-.413-.207-.7-.327a.2.2,0,0,1-.129-.2h0Z" transform="translate(-10.794 -14.047)" fill="#fff"/>
        <path id="Trazado_55" data-name="Trazado 55" d="M26.355,29.529c.077.034.095.155.034.258a4.454,4.454,0,0,1-.542.6c-.275.3-.542.6-.792.852-.4.387-.783.774-1.127,1.162a9.338,9.338,0,0,1-.964.912.708.708,0,0,1-.594.163c-.3-.052-.4-.361-.465-.62a.417.417,0,0,1,.146-.473c.1-.077.43-.318.972-.723.207-.155.542-.379,1.007-.663.757-.473,1.446-.947,2.048-1.4a.235.235,0,0,1,.267-.052h0Z" transform="translate(-9.129 -14.193)" fill="#fff"/>
        <path id="Trazado_56" data-name="Trazado 56" d="M33.089,29.816a.091.091,0,0,1,.1-.086.64.64,0,0,1,.232.1c.439.258.835.637,1.222.912.336.232.895.671,1.342,1q2.117,1.51,2.659,1.91a.89.89,0,0,1,.439,1.076.274.274,0,0,1-.155.155,1.617,1.617,0,0,1-.568.112.318.318,0,0,1-.207-.086c-.482-.447-1.187-1.033-1.773-1.618l-.7-.7q-.413-.439-.671-.671c-.336-.3-.585-.628-.929-.947-.4-.37-.688-.663-.878-.869a.407.407,0,0,1-.129-.275h0Z" transform="translate(-10.691 -14.222)" fill="#fff"/>
        <path id="Trazado_57" data-name="Trazado 57" d="M27.676,30.555a.531.531,0,0,1-.043.215c-.3.663-.533,1.187-.714,1.575-.3.654-.68,1.506-1.153,2.547-.129.275-.4.749-.749.714a.95.95,0,0,1-.473-.2c-.353-.258-.241-.663,0-.964a2.017,2.017,0,0,0,.232-.379.757.757,0,0,1,.052-.086q.594-.787.9-1.265a4.6,4.6,0,0,1,.336-.439c.163-.189.267-.387.43-.6.37-.473.654-.843.869-1.11a.28.28,0,0,1,.181-.1c.06,0,.12.043.112.1h0Z" transform="translate(-9.469 -14.324)" fill="#fff"/>
        <path id="Trazado_58" data-name="Trazado 58" d="M32.032,30.548a.231.231,0,0,1,.172.129c.439.7.955,1.489,1.523,2.237a9.987,9.987,0,0,1,.663.921c.336.568.706,1.136,1.119,1.7.207.293.344.8.034,1.067a.106.106,0,0,1-.069.034c-.155.052-.594.129-.74,0a1.849,1.849,0,0,1-.336-.473c-.293-.62-.568-1.162-.809-1.635-.215-.4-.379-.886-.62-1.368q-.452-.942-.9-1.859a2.605,2.605,0,0,1-.207-.577.154.154,0,0,1,.163-.189h0Z" transform="translate(-10.521 -14.335)" fill="#fff"/>
        <path id="Trazado_59" data-name="Trazado 59" d="M17.967,31.192a.283.283,0,0,1-.146.241c-.43.232-.852.387-1.325.645-.207.112-.508.258-.886.422-1.127.482-2.177.964-3.149,1.454-.447.224-1.179.353-1.532-.086a.863.863,0,0,1,.026-1.256,1.318,1.318,0,0,1,.628-.327,3.782,3.782,0,0,1,.387-.12c1.239-.327,2.254-.594,3.063-.8.37-.095,1.015-.275,1.936-.559a1.461,1.461,0,0,1,.637-.077.428.428,0,0,1,.361.465h0Z" transform="translate(-7.564 -14.359)" fill="#fff"/>
        <path id="Trazado_60" data-name="Trazado 60" d="M28.977,30.889a.147.147,0,0,1,.181.138,5.378,5.378,0,0,1,0,.912c-.06.826-.086,1.764-.181,2.521-.026.207-.077.766-.163,1.669a.7.7,0,0,1-.74.757.467.467,0,0,1-.344-.095.864.864,0,0,1-.241-1.05c.207-.714.473-1.446.663-2.229a16.761,16.761,0,0,1,.508-1.7c0-.026.017-.052.017-.069a3.144,3.144,0,0,1,.181-.706.2.2,0,0,1,.12-.129h0Z" transform="translate(-9.901 -14.383)" fill="#fff"/>
        <path id="Trazado_61" data-name="Trazado 61" d="M30.7,34v.026h0V34a13.616,13.616,0,0,0-.232-2.667v-.06a.755.755,0,0,1,.077-.318.125.125,0,0,1,.189-.043.536.536,0,0,1,.155.267c.25.921.525,1.9.8,2.951.1.37.189.835.327,1.256a10.069,10.069,0,0,1,.232,1,.741.741,0,0,1-.533.964.373.373,0,0,1-.215-.009c-.6-.155-.637-1.136-.68-1.669q-.065-.878-.1-1.678h0Z" transform="translate(-10.327 -14.384)" fill="#fff"/>
        <path id="Trazado_62" data-name="Trazado 62" d="M48.091,33.78a1,1,0,0,1-.843.611,1.826,1.826,0,0,1-.749-.25c-.671-.336-1.213-.637-1.626-.886-.284-.181-.5-.43-.379-.774s.456-.4.783-.353c.482.069,1.084.181,1.816.353a1.778,1.778,0,0,1,.74.293,1.024,1.024,0,0,1,.258,1.007h0Z" transform="translate(-12.279 -14.555)" fill="#fff"/>
        <path id="Trazado_63" data-name="Trazado 63" d="M20.051,34.277c.447.138.344.611.1.9-.095.112-.267.293-.508.533q-.865.878-1.7,1.781c-.267.284-.645.749-1.041.731-.37-.017-.663-.034-.852-.353-.516-.869.146-1.385.835-1.721.138-.069.31-.241.482-.344.835-.525,1.48-.938,1.927-1.248a1.608,1.608,0,0,1,.671-.3h.086Z" transform="translate(-8.289 -14.854)" fill="#fff"/>
        <path id="Trazado_64" data-name="Trazado 64" d="M42.952,38.231l-.026.026a1.008,1.008,0,0,1-1.532-.163c-.189-.224-.379-.456-.568-.688-.318-.4-.353-.74-.112-1.024s.585-.318,1.033-.077c.258.138.516.284.774.43a1.007,1.007,0,0,1,.439,1.48c0,.009-.009.017-.017.026h0Z" transform="translate(-11.735 -15.117)" fill="#fff"/>
        <path id="Trazado_65" data-name="Trazado 65" d="M23.782,37.423a1.638,1.638,0,0,1-.112.654c-.129.344-.25.645-.361.895a1.228,1.228,0,0,0-.069.189,4.206,4.206,0,0,1-.637,1.377.818.818,0,0,1-1.119.232.073.073,0,0,1-.043-.026c-.353-.318-.68-.835-.344-1.291.533-.723,1.084-1.4,1.652-2.065a.7.7,0,0,1,.895-.163.215.215,0,0,1,.138.207h0Z" transform="translate(-9 -15.255)" fill="#fff"/>
        <path id="Trazado_66" data-name="Trazado 66" d="M35.958,39.347c-.086-.516.37-.731.8-.757a.238.238,0,0,1,.077.009c.465.146,1.54,1.265,1.291,1.79-.293.611-1.007,1.015-1.566.473a2.844,2.844,0,0,1-.6-1.523h0Z" transform="translate(-11.091 -15.458)" fill="#fff"/>
        <path id="Trazado_67" data-name="Trazado 67" d="M26.864,38.979c.129-.2.353-.387.585-.284a.734.734,0,0,1,.49.731,15.722,15.722,0,0,1-.06,1.9.858.858,0,0,1-1.532.413c-.4-.43-.267-.912-.077-1.463a6.531,6.531,0,0,1,.585-1.3h0Z" transform="translate(-9.715 -15.469)" fill="#fff"/>
        <path id="Trazado_68" data-name="Trazado 68" d="M32.34,39.51a.345.345,0,0,1,.112.138l.31.654a.551.551,0,0,1,.034.086s.043.181.138.516a1.074,1.074,0,0,1-.138.947c-.172.318-.62.336-.947.293a.867.867,0,0,1-.731-.886,4.62,4.62,0,0,1,.129-1.626.244.244,0,0,1,.069-.095.744.744,0,0,1,1.015-.017h0Z" transform="translate(-10.416 -15.561)" fill="#fff"/>
      </g>
    </g>
  </g>
</svg>
