<svg xmlns="http://www.w3.org/2000/svg" width="45.33" height="30.917" viewBox="0 0 45.33 30.917">
  <g id="Sin_título-3_copia" data-name="Sin título-3 copia" transform="translate(-7.061 -11.707)">
    <g id="Grupo_1" data-name="Grupo 1">
      <path id="Trazado_1" data-name="Trazado 1" d="M31.6,16.57c.53.09.69-.35.82-.75.47-1.43.77-2.4.89-2.92.14-.57-.44-1.08-.92-1.16a1.069,1.069,0,0,0-1.24.8c-.04.54-.07,1.56-.08,3.06,0,.42,0,.88.53.97m-3.69-.44c.36-.06.45-.68.41-.96a12.6,12.6,0,0,1-.05-2.24,1.075,1.075,0,1,0-2.13.02,3.918,3.918,0,0,0,.22.99c.27.75.47,1.28.59,1.61a.8.8,0,0,0,.95.59" fill="#FFFFFF"/>
      <path id="Trazado_2" data-name="Trazado 2" d="M23.16,17.1a.257.257,0,0,0,.22.1h.51a.29.29,0,0,0,.29-.23,2.363,2.363,0,0,0-.36-1.6,1.021,1.021,0,0,1-.11-.29c-.15-.56-.66-2.16-1.39-2.2a1.124,1.124,0,0,0-.98,1.92c.81,1.04,1.42,1.8,1.82,2.3" fill="#FFFFFF"/>
      <path id="Trazado_3" data-name="Trazado 3" d="M35.09,18.55a10.048,10.048,0,0,0,1.65-2.03c.13-.16.55-.71,1.28-1.68a2.878,2.878,0,0,0,.4-.7.335.335,0,0,0,0-.26c-.25-.69-.67-1.12-1.46-.97a.223.223,0,0,0-.13.06,2.358,2.358,0,0,0-.62.72,20.447,20.447,0,0,0-.79,1.92,8.426,8.426,0,0,1-.43.93c-.16.31-.57,1.19-.47,1.5a.91.91,0,0,0,.4.5.172.172,0,0,0,.17,0" fill="#FFFFFF"/>
      <path id="Trazado_4" data-name="Trazado 4" d="M20.89,19.8a.651.651,0,0,0-.13-.89c-.72-.71-1.49-1.51-2.31-2.42a8.592,8.592,0,0,0-.9-.86c-.38-.3-.68-.24-1.15-.08a1.02,1.02,0,0,0-.31,1.51,2.485,2.485,0,0,0,.38.36c.6.44,1.3.84,2,1.34.49.35,1.88,1.42,2.37,1.1a.17.17,0,0,0,.06-.06" fill="#FFFFFF"/>
      <path id="Trazado_5" data-name="Trazado 5" d="M36.68,21.19a.564.564,0,0,0,.78.07c.66-.43,1.2-.81,1.62-1.12q.27-.21.9-.6c.18-.11.47-.32.88-.62.85-.63,1.63-1.17,2.33-1.63a.741.741,0,0,0,.27-.41,1.112,1.112,0,0,0-1.93-1.04l-2.37,2.4c-.77.82-1.6,1.59-2.39,2.4a.414.414,0,0,0-.13.45.218.218,0,0,0,.05.08" fill="#FFFFFF"/>
      <path id="Trazado_6" data-name="Trazado 6" d="M28.89,22.72c.02.18.14.76.36.88a.2.2,0,0,0,.3-.15v-.14c-.15-1.78-.25-3.32-.32-4.64-.02-.37-.14-1.17-.47-1.4a.63.63,0,0,0-.89.04c-.46.43-.27.92-.09,1.54.23.8.37,1.44.6,2.1.12.35.25.85.4,1.49a.6.6,0,0,0,.08.19.689.689,0,0,1,.03.08m2.49-1.15c.18-.52.44-1.33.77-2.42.17-.56.32-1.13-.23-1.52a.72.72,0,0,0-1.11.57c-.06.55-.1,1.17-.13,1.86-.02.54-.06,1.06-.11,1.55-.05.54-.09,1.06-.1,1.55a1.626,1.626,0,0,0,.03.39.177.177,0,0,0,.22.15c.24-.08.29-.53.37-.84.11-.42.16-.89.3-1.29m-3.27,2.4a.274.274,0,0,0,.06-.32c-.77-1.71-1.2-2.67-1.3-2.87-.21-.45-.37-.8-.46-1.06a7.228,7.228,0,0,0-.61-1.21.717.717,0,0,0-1.02-.3c-.35.18-.61.63-.37.97.45.64.75.99,1.11,1.58.53.87,1.26,1.61,1.82,2.46.15.22.31.47.49.73a.176.176,0,0,0,.27.03h0" fill="#FFFFFF"/>
      <path id="Trazado_7" data-name="Trazado 7" d="M31.89,24.18a.65.65,0,0,0,.28-.23c.27-.36.58-.79.92-1.28.43-.63.91-1.2,1.38-1.81a4.775,4.775,0,0,0,.49-.77.42.42,0,0,0,.02-.33c-.13-.33-.56-.85-.96-.62a1.773,1.773,0,0,0-.78,1.04c-.29.64-.5,1.13-.62,1.47a2.229,2.229,0,0,1-.15.34c-.14.3-.22.58-.36.86a2.784,2.784,0,0,0-.42,1.22.166.166,0,0,0,.21.12" fill="#FFFFFF"/>
      <path id="Trazado_8" data-name="Trazado 8" d="M18.94,23.15c.08-.21-.15-.4-.31-.49-.43-.24-.99-.52-1.66-.84-2.38-1.11-3.91-1.82-4.61-2.14a1.131,1.131,0,0,0-1.29.15.982.982,0,0,0-.06,1.55,2.712,2.712,0,0,0,.87.42c.53.22,1.21.35,1.68.51.36.12.81.17,1.12.26,1.24.36,2.35.66,3.32.91.43.11.77.11.93-.33" fill="#FFFFFF"/>
      <path id="Trazado_9" data-name="Trazado 9" d="M37.59,24.67h.16c.51-.12,1.05-.26,1.63-.45.69-.22,1.22-.38,1.61-.49.99-.28,2.06-.6,3.2-.95.21-.07,1.03-.29,2.45-.67a6.091,6.091,0,0,0,.61-.19c.37-.16.84-.23,1.09-.53.16-.2.43-.61.35-.89a1.208,1.208,0,0,0-1.39-.87,4.6,4.6,0,0,0-.84.28c-.62.29-1.52.69-2.68,1.2q-2.25.99-3.87,1.68c-.42.18-.82.37-1.21.56-.41.21-.83.36-1.29.59a.176.176,0,0,0-.08.2l.15.44a.157.157,0,0,0,.11.1" fill="#FFFFFF"/>
      <path id="Trazado_10" data-name="Trazado 10" d="M22.5,20.16a1.331,1.331,0,0,0-.71.5.739.739,0,0,0,.27.95c.45.31,1.02.66,1.48.99,1,.72,1.6,1.15,1.82,1.29q.225.15,1.02.6c.03.02.05.03.08.05a3.6,3.6,0,0,0,.43.32.205.205,0,0,0,.28-.06c.1-.14-.08-.36-.2-.46a7.67,7.67,0,0,1-.76-.69c-.45-.49-1.05-1.13-1.8-1.9a16.569,16.569,0,0,0-1.59-1.49.373.373,0,0,0-.31-.1" fill="#FFFFFF"/>
      <path id="Trazado_11" data-name="Trazado 11" d="M32.61,24.84a.134.134,0,0,0,.09.19c.24.07.64-.22.92-.4.9-.57,1.7-1.07,2.41-1.5a1.037,1.037,0,0,0,.59-.84.569.569,0,0,0-.47-.65c-.55-.16-.88.14-1.21.51-.5.57-.86.99-1.1,1.24q-.24.27-.3.33c-.21.24-.41.46-.61.68a1.878,1.878,0,0,0-.31.44" fill="#FFFFFF"/>
      <path id="Trazado_12" data-name="Trazado 12" d="M26.52,25.91a.25.25,0,0,0-.14-.29c-.21-.08-.41-.16-.59-.22-.05-.02-.62-.29-1.72-.81-.39-.19-.83-.41-1.31-.67-.33-.18-.77-.4-1.33-.66a.815.815,0,0,0-1.1.18.959.959,0,0,0-.1.81.645.645,0,0,0,.48.41c.6.19,1.24.36,1.93.51.21.04.47.17.71.22.8.2,1.6.41,2.4.61a1.644,1.644,0,0,0,.61.06c.08,0,.13-.06.15-.15" fill="#FFFFFF"/>
      <path id="Trazado_13" data-name="Trazado 13" d="M36.9,24.29a1.679,1.679,0,0,0-1.69.32c-.67.42-1.23.75-1.69.98-.13.07-.39.27-.37.42a.2.2,0,0,0,.2.16,3.072,3.072,0,0,0,.67-.05c.6-.12,1.36-.25,2.27-.39a1.779,1.779,0,0,0,.59-.19c.35-.19.25-.84.14-1.14a.216.216,0,0,0-.11-.12" fill="#FFFFFF"/>
      <path id="Trazado_14" data-name="Trazado 14" d="M18.36,27.51a.718.718,0,0,0-.03-.64.435.435,0,0,0-.06-.07.933.933,0,0,0-.56-.22c-1.36.01-2.73-.12-4.08-.24-.69-.06-1.76-.11-3.19-.14-.35,0-.66-.02-.94-.03-.56-.03-.87-.04-.94-.04a2.918,2.918,0,0,0-.91.09.983.983,0,0,0-.5,1.26c.12.27.3.65.57.69a2.89,2.89,0,0,0,.44.02c1.07-.04,2.12-.06,3.16-.07.33,0,1.29-.07,2.9-.19.5-.04,1.69-.1,3.58-.17.29-.01.47-.06.53-.15a.2.2,0,0,0,.04-.08" fill="#FFFFFF"/>
      <path id="Trazado_15" data-name="Trazado 15" d="M46.77,27.61a1.315,1.315,0,0,0,.76.26,33.706,33.706,0,0,0,3.6.31c.44.01.8.04,1.02-.31a1.051,1.051,0,0,0,.04-1.24,1.1,1.1,0,0,0-1.11-.52c-1.34.09-2.28.16-2.82.22a9.4,9.4,0,0,0-1.22.22.405.405,0,0,0-.34.31,1.089,1.089,0,0,0,0,.67.218.218,0,0,0,.05.08" fill="#FFFFFF"/>
      <path id="Trazado_16" data-name="Trazado 16" d="M19.67,27.24a.778.778,0,0,0,.91.8c1.53-.13,3.23-.3,5.1-.52.17-.02.66-.09.66-.31s-.49-.28-.66-.3q-2.805-.3-5.1-.48a.781.781,0,0,0-.91.81" fill="#FFFFFF"/>
      <path id="Trazado_17" data-name="Trazado 17" d="M34.38,27.48a12.734,12.734,0,0,1,2.26.13c.27.03.45.04.53.05.49.02.87.06,1.33.06.36,0,.84.05,1.12.06.09,0,.84.03,2.24.08.22,0,.68.04,1.37.09.43.03.88.05,1.37.04a.671.671,0,0,0,.68-.59c.06-.51-.08-.89-.68-.91-.94-.02-2.02.1-2.9.09-.59,0-1.51.04-2.75.13q-1.17.09-4.44.27a.33.33,0,0,0-.31.25v.02a.183.183,0,0,0,.19.24" fill="#FFFFFF"/>
      <path id="Trazado_18" data-name="Trazado 18" d="M20.34,30.1a.8.8,0,0,0,1.12,1.03c1.14-.52,2.18-.97,3.29-1.56.53-.29,1.11-.57,1.73-.84a.146.146,0,0,0,.03-.25.5.5,0,0,0-.4-.08c-.64.08-1.31.31-1.97.46q-2.475.585-3.24.81a1.421,1.421,0,0,0-.52.35.218.218,0,0,0-.05.08" fill="#FFFFFF"/>
      <path id="Trazado_19" data-name="Trazado 19" d="M33.83,28.66a.232.232,0,0,0,.15.23c.32.14.59.27.81.38a6.145,6.145,0,0,0,.8.38c.36.12.7.34,1.12.5,1.09.41,1.75.67,1.97.77,1.23.57,2.44,1.09,3.62,1.58a.673.673,0,0,0,.8-.13c.92-.93-.44-1.4-1.09-1.56-.83-.21-1.7-.53-2.39-.72-.43-.12-.92-.27-1.46-.44-1.28-.41-2.62-.8-4-1.16-.19-.05-.3,0-.32.17" fill="#FFFFFF"/>
      <path id="Trazado_20" data-name="Trazado 20" d="M27.08,29.53a.289.289,0,0,0-.31.06c-.7.54-1.5,1.08-2.38,1.63-.54.34-.93.59-1.17.77-.64.47-1.01.75-1.13.84a.5.5,0,0,0-.17.55c.07.3.19.66.54.72a.823.823,0,0,0,.69-.19,9.87,9.87,0,0,0,1.12-1.06c.4-.44.84-.89,1.31-1.35.29-.28.6-.64.92-.99a5.176,5.176,0,0,0,.63-.7.205.205,0,0,0-.04-.3" fill="#FFFFFF"/>
      <path id="Trazado_21" data-name="Trazado 21" d="M33.09,29.83a.455.455,0,0,0,.15.32c.22.24.56.57,1.02,1.01.4.37.69.75,1.08,1.1q.3.27.78.78l.81.81c.69.68,1.5,1.36,2.06,1.88a.369.369,0,0,0,.24.1,1.679,1.679,0,0,0,.66-.13.292.292,0,0,0,.18-.18,1.045,1.045,0,0,0-.51-1.25q-.63-.465-3.09-2.22c-.52-.37-1.17-.88-1.56-1.16-.45-.31-.92-.75-1.42-1.06a.744.744,0,0,0-.27-.12.106.106,0,0,0-.12.1" fill="#FFFFFF"/>
      <path id="Trazado_22" data-name="Trazado 22" d="M28.22,30.57a.124.124,0,0,0-.13-.12.259.259,0,0,0-.21.12c-.25.3-.58.73-1.01,1.29-.2.25-.31.48-.5.7a4.974,4.974,0,0,0-.39.51q-.36.555-1.05,1.47c-.02.03-.04.07-.06.1a2.344,2.344,0,0,1-.27.44c-.28.35-.42.82,0,1.12a1.162,1.162,0,0,0,.55.23c.4.03.72-.51.87-.83.55-1.21.99-2.19,1.34-2.96.21-.45.48-1.06.83-1.83a.786.786,0,0,0,.05-.25" fill="#FFFFFF"/>
      <path id="Trazado_23" data-name="Trazado 23" d="M32.06,30.55a.183.183,0,0,0-.19.22,2.593,2.593,0,0,0,.24.67q.525,1.065,1.05,2.16c.27.56.47,1.12.72,1.59.29.54.6,1.18.94,1.9a1.754,1.754,0,0,0,.39.55c.18.14.68.05.86,0,.03,0,.05-.02.08-.04.36-.32.2-.9-.04-1.24-.48-.67-.91-1.33-1.3-1.98-.1-.16-.35-.52-.77-1.07-.66-.86-1.25-1.79-1.77-2.6a.286.286,0,0,0-.2-.15" fill="#FFFFFF"/>
      <path id="Trazado_24" data-name="Trazado 24" d="M19.15,31.27a.5.5,0,0,0-.42-.54,1.7,1.7,0,0,0-.74.09c-1.07.32-1.82.54-2.25.65-.94.23-2.12.54-3.56.93-.13.04-.28.08-.45.14a1.494,1.494,0,0,0-.73.38,1,1,0,0,0-.03,1.46c.41.51,1.27.36,1.78.1,1.13-.56,2.36-1.13,3.66-1.69.44-.19.78-.35,1.03-.49.55-.3,1.04-.49,1.54-.75a.316.316,0,0,0,.17-.28" fill="#FFFFFF"/>
      <path id="Trazado_25" data-name="Trazado 25" d="M29.23,30.89a.234.234,0,0,0-.14.15,3.521,3.521,0,0,0-.21.82.188.188,0,0,1-.02.08c-.24.7-.44,1.36-.59,1.98-.22.92-.53,1.76-.77,2.59a1,1,0,0,0,.28,1.22.543.543,0,0,0,.4.11c.59-.05.81-.31.86-.88.1-1.05.16-1.7.19-1.94.11-.89.13-1.97.21-2.93a6.251,6.251,0,0,0,0-1.06.172.172,0,0,0-.21-.16m1.53,3.63c.03.61.06,1.26.12,1.95.05.62.09,1.76.79,1.94a.434.434,0,0,0,.25.01.871.871,0,0,0,.62-1.12,11.7,11.7,0,0,0-.27-1.16c-.17-.49-.27-1.03-.38-1.46-.33-1.22-.64-2.36-.93-3.43a.623.623,0,0,0-.18-.31.145.145,0,0,0-.22.05,1.059,1.059,0,0,0-.09.37v.07a15.891,15.891,0,0,1,.27,3.1v.02h0V34.5h0" fill="#FFFFFF"/>
      <path id="Trazado_26" data-name="Trazado 26" d="M44.5,32.54c-.14.39.11.69.44.9.48.3,1.11.64,1.89,1.03a2.168,2.168,0,0,0,.87.29,1.075,1.075,0,0,0,.68-1.88,2.145,2.145,0,0,0-.86-.34,21.067,21.067,0,0,0-2.11-.41c-.38-.05-.77.02-.91.41" fill="#FFFFFF"/>
      <path id="Trazado_27" data-name="Trazado 27" d="M20.63,34.28a1.869,1.869,0,0,0-.78.35c-.52.36-1.27.84-2.24,1.45-.2.13-.41.32-.56.4-.79.4-1.57,1-.97,2,.22.37.56.39.99.41.45.02.9-.52,1.21-.85q.96-1.065,1.98-2.07c.29-.29.48-.5.59-.62.29-.34.4-.89-.12-1.05a.333.333,0,0,0-.1,0" fill="#FFFFFF"/>
      <path id="Trazado_28" data-name="Trazado 28" d="M40.75,36.42c-.28.34-.24.74.13,1.19.22.27.43.54.66.8a1.165,1.165,0,0,0,1.78.19c.01,0,.02-.02.03-.03a.144.144,0,0,1,.02-.03,1.175,1.175,0,0,0-.51-1.72c-.3-.17-.6-.34-.9-.5q-.78-.42-1.2.09" fill="#FFFFFF"/>
      <path id="Trazado_29" data-name="Trazado 29" d="M24.24,37.47a.277.277,0,0,0-.16-.24.824.824,0,0,0-1.04.19q-.99,1.14-1.92,2.4c-.39.53-.01,1.13.4,1.5.02.01.03.03.05.03a.953.953,0,0,0,1.3-.27,4.889,4.889,0,0,0,.74-1.6,1.945,1.945,0,0,1,.08-.22c.13-.29.27-.64.42-1.04a1.875,1.875,0,0,0,.13-.76" fill="#FFFFFF"/>
      <path id="Trazado_30" data-name="Trazado 30" d="M36.89,38.59c-.5.02-1.03.28-.93.88a3.337,3.337,0,0,0,.7,1.77c.65.62,1.48.16,1.82-.55.29-.6-.96-1.9-1.5-2.08a.277.277,0,0,0-.09-.01" fill="#FFFFFF"/>
      <path id="Trazado_31" data-name="Trazado 31" d="M27.67,38.69c-.28-.12-.54.1-.68.33a7.59,7.59,0,0,0-.68,1.51c-.22.64-.38,1.19.09,1.7a1,1,0,0,0,1.78-.48,18.156,18.156,0,0,0,.07-2.21.853.853,0,0,0-.57-.85" fill="#FFFFFF"/>
      <path id="Trazado_32" data-name="Trazado 32" d="M32.54,39.54a.875.875,0,0,0-1.18.02.284.284,0,0,0-.08.11,5.145,5.145,0,0,0-.15,1.89.994.994,0,0,0,.85,1.03c.38.05.9.03,1.1-.34a1.281,1.281,0,0,0,.16-1.1c-.11-.4-.16-.6-.16-.6a1.039,1.039,0,0,1-.04-.1l-.36-.76a.509.509,0,0,0-.13-.16" fill="#FFFFFF"/>
      <path id="Trazado_33" data-name="Trazado 33" d="M32.39,11.73c.48.08,1.06.59.92,1.16-.13.52-.43,1.5-.89,2.92-.13.4-.28.84-.82.75s-.54-.55-.53-.97c0-1.5.04-2.52.08-3.06a1.069,1.069,0,0,1,1.24-.8h0Z" fill="#FFFFFF"/>
      <path id="Trazado_34" data-name="Trazado 34" d="M27.91,16.13a.788.788,0,0,1-.95-.59c-.12-.32-.32-.86-.59-1.61a3.918,3.918,0,0,1-.22-.99,1.075,1.075,0,1,1,2.13-.02,10.918,10.918,0,0,0,.05,2.24c.04.28-.05.9-.41.96h0Z" fill="#FFFFFF"/>
      <path id="Trazado_35" data-name="Trazado 35" d="M23.16,17.1c-.41-.49-1.01-1.26-1.82-2.3a1.172,1.172,0,0,1-.31-1.11,1.142,1.142,0,0,1,1.29-.81c.73.04,1.24,1.64,1.39,2.2a1.446,1.446,0,0,0,.11.29,2.42,2.42,0,0,1,.36,1.6.3.3,0,0,1-.29.23h-.51a.287.287,0,0,1-.22-.1h0Z" fill="#FFFFFF"/>
      <path id="Trazado_36" data-name="Trazado 36" d="M35.09,18.55a.135.135,0,0,1-.17,0,.956.956,0,0,1-.4-.5c-.1-.31.31-1.19.47-1.5a8.425,8.425,0,0,0,.43-.93,20.446,20.446,0,0,1,.79-1.92,2.48,2.48,0,0,1,.62-.72.223.223,0,0,1,.13-.06c.79-.16,1.21.28,1.46.97a.387.387,0,0,1,0,.26,3.247,3.247,0,0,1-.4.7c-.72.96-1.15,1.52-1.28,1.68a9.72,9.72,0,0,1-1.65,2.03h0Z" fill="#FFFFFF"/>
      <path id="Trazado_37" data-name="Trazado 37" d="M20.83,19.87c-.49.32-1.88-.75-2.37-1.1-.7-.5-1.4-.9-2-1.34a2.517,2.517,0,0,1-.38-.36,1.03,1.03,0,0,1,.31-1.51,1.057,1.057,0,0,1,1.15.08,8.592,8.592,0,0,1,.9.86c.83.9,1.6,1.71,2.31,2.42a.652.652,0,0,1,.13.89.117.117,0,0,1-.06.06h0Z" fill="#FFFFFF"/>
      <path id="Trazado_38" data-name="Trazado 38" d="M36.63,21.1a.442.442,0,0,1,.13-.45c.79-.81,1.61-1.58,2.39-2.4q.045-.06,2.37-2.4a1.112,1.112,0,0,1,1.93,1.04.707.707,0,0,1-.27.41c-.7.46-1.48,1-2.33,1.63-.41.3-.7.51-.88.62q-.615.39-.9.6c-.41.32-.95.69-1.62,1.12a.573.573,0,0,1-.78-.07.218.218,0,0,1-.05-.08h0Z" fill="#FFFFFF"/>
      <path id="Trazado_39" data-name="Trazado 39" d="M28.86,22.64a.6.6,0,0,1-.08-.19c-.15-.64-.28-1.13-.4-1.49-.23-.67-.36-1.31-.6-2.1-.18-.62-.36-1.12.09-1.54a.649.649,0,0,1,.89-.04c.33.23.45,1.03.47,1.4.07,1.32.17,2.86.32,4.64v.14a.2.2,0,0,1-.3.15c-.22-.13-.34-.7-.36-.88a.133.133,0,0,0-.03-.08h0Z" fill="#FFFFFF"/>
      <path id="Trazado_40" data-name="Trazado 40" d="M31.38,21.56c-.14.4-.19.87-.3,1.29-.08.31-.13.76-.37.84a.177.177,0,0,1-.22-.15,2.376,2.376,0,0,1-.03-.39c.01-.49.05-1.01.1-1.55.05-.49.09-1,.11-1.55.03-.69.07-1.31.13-1.86a.718.718,0,0,1,1.11-.57c.55.38.4.96.23,1.52-.33,1.09-.58,1.9-.77,2.42h0Z" fill="#FFFFFF"/>
      <path id="Trazado_41" data-name="Trazado 41" d="M28.12,23.96h0a.176.176,0,0,1-.27-.03c-.18-.26-.34-.51-.49-.73-.56-.84-1.29-1.58-1.82-2.46-.36-.6-.66-.95-1.11-1.58a.7.7,0,0,1,.37-.97.717.717,0,0,1,1.02.3,7.628,7.628,0,0,1,.61,1.21,9.993,9.993,0,0,0,.46,1.06c.1.2.53,1.16,1.3,2.87a.29.29,0,0,1-.06.32h0Z" fill="#FFFFFF"/>
      <path id="Trazado_42" data-name="Trazado 42" d="M31.89,24.18a.16.16,0,0,1-.21-.12,2.872,2.872,0,0,1,.42-1.22c.14-.28.22-.57.36-.86.06-.14.11-.25.15-.34.12-.34.33-.83.62-1.47a1.856,1.856,0,0,1,.78-1.04c.41-.23.84.29.96.62a.42.42,0,0,1-.02.33,4.774,4.774,0,0,1-.49.77c-.47.61-.94,1.18-1.38,1.81-.34.49-.64.92-.92,1.28a.65.65,0,0,1-.28.23h0Z" fill="#FFFFFF"/>
      <path id="Trazado_43" data-name="Trazado 43" d="M18.94,23.15c-.16.44-.51.44-.93.33-.97-.25-2.07-.55-3.32-.91-.32-.09-.77-.14-1.12-.26-.47-.16-1.15-.29-1.68-.51a2.712,2.712,0,0,1-.87-.42.982.982,0,0,1,.06-1.55,1.131,1.131,0,0,1,1.29-.15c.7.32,2.23,1.03,4.61,2.14.67.31,1.23.59,1.66.84.16.09.39.28.31.49h0Z" fill="#FFFFFF"/>
      <path id="Trazado_44" data-name="Trazado 44" d="M37.59,24.67a.141.141,0,0,1-.11-.1l-.15-.44a.154.154,0,0,1,.08-.2c.46-.24.88-.39,1.29-.59.39-.2.8-.38,1.21-.56q1.62-.69,3.87-1.68c1.16-.51,2.06-.91,2.68-1.2a3.943,3.943,0,0,1,.84-.28,1.228,1.228,0,0,1,1.39.87c.07.28-.19.69-.35.89-.25.3-.72.37-1.09.53a6.091,6.091,0,0,1-.61.19c-1.42.38-2.24.61-2.45.67-1.15.35-2.22.67-3.2.95-.39.11-.92.27-1.61.49-.57.18-1.11.33-1.63.45a.43.43,0,0,1-.16,0h0Z" fill="#FFFFFF"/>
      <path id="Trazado_45" data-name="Trazado 45" d="M22.5,20.16a.35.35,0,0,1,.31.1,14.476,14.476,0,0,1,1.59,1.49c.75.77,1.35,1.41,1.8,1.9a9.061,9.061,0,0,0,.76.69c.12.1.3.32.2.46a.218.218,0,0,1-.28.06c-.11-.07-.25-.18-.43-.32a.218.218,0,0,0-.08-.05q-.8-.45-1.02-.6c-.21-.14-.82-.57-1.82-1.29-.47-.33-1.03-.68-1.48-.99a.739.739,0,0,1-.27-.95,1.386,1.386,0,0,1,.71-.5h0Z" fill="#FFFFFF"/>
      <path id="Trazado_46" data-name="Trazado 46" d="M32.61,24.84a1.542,1.542,0,0,1,.31-.44c.2-.22.4-.44.61-.68q.06-.06.3-.33c.24-.26.6-.67,1.1-1.24.33-.38.66-.68,1.21-.51a.575.575,0,0,1,.47.65,1.037,1.037,0,0,1-.59.84c-.7.44-1.5.94-2.41,1.5-.28.18-.68.46-.92.4a.141.141,0,0,1-.09-.19h0Z" fill="#FFFFFF"/>
      <path id="Trazado_47" data-name="Trazado 47" d="M26.52,25.91q-.03.15-.15.15a1.682,1.682,0,0,1-.61-.06c-.8-.21-1.6-.41-2.4-.61-.24-.06-.5-.18-.71-.22-.69-.15-1.33-.32-1.93-.51a.645.645,0,0,1-.48-.41.894.894,0,0,1,.1-.81.817.817,0,0,1,1.1-.18c.55.26.99.47,1.33.66.48.26.92.49,1.31.67,1.09.52,1.67.79,1.72.81.18.07.37.14.59.22a.245.245,0,0,1,.14.29h0Z" fill="#FFFFFF"/>
      <path id="Trazado_48" data-name="Trazado 48" d="M36.9,24.29a.254.254,0,0,1,.11.12c.11.29.21.95-.14,1.14a1.779,1.779,0,0,1-.59.19c-.91.14-1.67.27-2.27.39a3.027,3.027,0,0,1-.67.05.2.2,0,0,1-.2-.16c-.02-.16.24-.36.37-.42.46-.24,1.02-.57,1.69-.98a1.683,1.683,0,0,1,1.69-.32h0Z" fill="#FFFFFF"/>
      <path id="Trazado_49" data-name="Trazado 49" d="M18.32,27.59c-.06.09-.23.14-.53.15-1.89.08-3.08.14-3.58.17-1.61.13-2.58.19-2.9.19-1.04.01-2.09.04-3.16.07a2.958,2.958,0,0,1-.44-.02c-.27-.04-.45-.42-.57-.69a.974.974,0,0,1,.5-1.26,3.348,3.348,0,0,1,.91-.09c.06,0,.38.01.94.04.28.01.59.02.94.03,1.43.03,2.5.08,3.19.14,1.35.12,2.72.25,4.08.24a.953.953,0,0,1,.56.22.134.134,0,0,1,.06.07.718.718,0,0,1,.03.64.3.3,0,0,1-.04.08h0Z" fill="#FFFFFF"/>
      <path id="Trazado_50" data-name="Trazado 50" d="M46.72,27.53a.958.958,0,0,1,0-.67.419.419,0,0,1,.34-.31,9.4,9.4,0,0,1,1.22-.22c.54-.06,1.48-.13,2.82-.22a1.1,1.1,0,0,1,1.11.52,1.067,1.067,0,0,1-.04,1.24c-.22.35-.59.33-1.02.31-1.08-.03-2.28-.14-3.6-.31a1.188,1.188,0,0,1-.76-.26.218.218,0,0,1-.05-.08h0Z" fill="#FFFFFF"/>
      <path id="Trazado_51" data-name="Trazado 51" d="M26.35,27.21c0,.22-.49.29-.66.31-1.87.22-3.57.39-5.1.52a.774.774,0,0,1-.91-.8.786.786,0,0,1,.91-.81q2.3.165,5.1.48c.17.02.66.08.66.3Z" fill="#FFFFFF"/>
      <path id="Trazado_52" data-name="Trazado 52" d="M34.38,27.48a.186.186,0,0,1-.19-.24v-.02a.366.366,0,0,1,.32-.25q3.27-.18,4.44-.27c1.24-.1,2.16-.14,2.75-.13.88.01,1.96-.11,2.9-.09.6.02.74.4.68.91a.663.663,0,0,1-.68.59c-.49,0-.95-.01-1.37-.04-.69-.05-1.15-.08-1.37-.09-1.4-.05-2.15-.07-2.24-.08-.28-.01-.76-.06-1.12-.06-.46,0-.84-.04-1.33-.06-.08,0-.26-.02-.53-.05a12.688,12.688,0,0,0-2.26-.13h0Z" fill="#FFFFFF"/>
      <path id="Trazado_53" data-name="Trazado 53" d="M20.39,30.02a1.421,1.421,0,0,1,.52-.35q.75-.225,3.24-.81a18.05,18.05,0,0,1,1.97-.46.5.5,0,0,1,.4.08.146.146,0,0,1-.03.25c-.62.27-1.2.55-1.73.84-1.11.59-2.15,1.04-3.29,1.56a.8.8,0,0,1-1.12-1.03.218.218,0,0,1,.05-.08h0Z" fill="#FFFFFF"/>
      <path id="Trazado_54" data-name="Trazado 54" d="M33.83,28.66c.02-.17.13-.22.32-.17,1.38.36,2.71.74,4,1.16.54.17,1.02.32,1.46.44.7.19,1.56.51,2.39.72.65.17,2.01.64,1.09,1.56a.67.67,0,0,1-.8.13c-1.18-.48-2.39-1.01-3.62-1.58-.22-.1-.88-.36-1.97-.77-.42-.16-.75-.37-1.12-.5-.12-.04-.38-.17-.8-.38-.21-.11-.48-.24-.81-.38a.232.232,0,0,1-.15-.23h0Z" fill="#FFFFFF"/>
      <path id="Trazado_55" data-name="Trazado 55" d="M27.08,29.53c.09.04.11.18.04.3a5.176,5.176,0,0,1-.63.7c-.32.35-.63.7-.92.99-.47.45-.91.9-1.31,1.35a10.852,10.852,0,0,1-1.12,1.06.823.823,0,0,1-.69.19c-.35-.06-.47-.42-.54-.72a.484.484,0,0,1,.17-.55c.12-.09.5-.37,1.13-.84.24-.18.63-.44,1.17-.77.88-.55,1.68-1.1,2.38-1.63a.273.273,0,0,1,.31-.06h0Z" fill="#FFFFFF"/>
      <path id="Trazado_56" data-name="Trazado 56" d="M33.09,29.83a.106.106,0,0,1,.12-.1.744.744,0,0,1,.27.12c.51.3.97.74,1.42,1.06.39.27,1.04.78,1.56,1.16q2.46,1.755,3.09,2.22a1.034,1.034,0,0,1,.51,1.25.319.319,0,0,1-.18.18,1.88,1.88,0,0,1-.66.13.369.369,0,0,1-.24-.1c-.56-.52-1.38-1.2-2.06-1.88l-.81-.81q-.48-.51-.78-.78c-.39-.35-.68-.73-1.08-1.1-.46-.43-.8-.77-1.02-1.01a.473.473,0,0,1-.15-.32h0Z" fill="#FFFFFF"/>
      <path id="Trazado_57" data-name="Trazado 57" d="M28.22,30.57a.618.618,0,0,1-.05.25c-.35.77-.62,1.38-.83,1.83-.35.76-.79,1.75-1.34,2.96-.15.32-.47.87-.87.83a1.1,1.1,0,0,1-.55-.23c-.41-.3-.28-.77,0-1.12a2.344,2.344,0,0,0,.27-.44.879.879,0,0,1,.06-.1q.69-.915,1.05-1.47a5.344,5.344,0,0,1,.39-.51c.19-.22.31-.45.5-.7.43-.55.76-.98,1.01-1.29a.326.326,0,0,1,.21-.12c.07,0,.14.05.13.12h0Z" fill="#FFFFFF"/>
      <path id="Trazado_58" data-name="Trazado 58" d="M32.06,30.55a.268.268,0,0,1,.2.15c.51.81,1.11,1.73,1.77,2.6a11.606,11.606,0,0,1,.77,1.07c.39.66.82,1.32,1.3,1.98.24.34.4.93.04,1.24a.123.123,0,0,1-.08.04c-.18.06-.69.15-.86,0a2.149,2.149,0,0,1-.39-.55c-.34-.72-.66-1.35-.94-1.9-.25-.47-.44-1.03-.72-1.59q-.525-1.095-1.05-2.16a3.028,3.028,0,0,1-.24-.67.18.18,0,0,1,.19-.22h0Z" fill="#FFFFFF"/>
      <path id="Trazado_59" data-name="Trazado 59" d="M19.15,31.27a.329.329,0,0,1-.17.28c-.5.27-.99.45-1.54.75-.24.13-.59.3-1.03.49-1.31.56-2.53,1.12-3.66,1.69-.52.26-1.37.41-1.78-.1A1,1,0,0,1,11,32.92a1.532,1.532,0,0,1,.73-.38,4.394,4.394,0,0,1,.45-.14c1.44-.38,2.62-.69,3.56-.93.43-.11,1.18-.32,2.25-.65a1.7,1.7,0,0,1,.74-.09.5.5,0,0,1,.42.54h0Z" fill="#FFFFFF"/>
      <path id="Trazado_60" data-name="Trazado 60" d="M29.23,30.89a.171.171,0,0,1,.21.16,6.251,6.251,0,0,1,0,1.06c-.07.96-.1,2.05-.21,2.93-.03.24-.09.89-.19,1.94a.819.819,0,0,1-.86.88.543.543,0,0,1-.4-.11,1,1,0,0,1-.28-1.22c.24-.83.55-1.68.77-2.59a19.479,19.479,0,0,1,.59-1.98c0-.03.02-.06.02-.08a3.654,3.654,0,0,1,.21-.82.234.234,0,0,1,.14-.15h0Z" fill="#FFFFFF"/>
      <path id="Trazado_61" data-name="Trazado 61" d="M30.74,34.5v.03h0v-.02a15.823,15.823,0,0,0-.27-3.1v-.07a.878.878,0,0,1,.09-.37.145.145,0,0,1,.22-.05.623.623,0,0,1,.18.31c.29,1.07.61,2.21.93,3.43.12.43.22.97.38,1.46a11.7,11.7,0,0,1,.27,1.16.861.861,0,0,1-.62,1.12.433.433,0,0,1-.25-.01c-.7-.18-.74-1.32-.79-1.94q-.075-1.02-.12-1.95h0Z" fill="#FFFFFF"/>
      <path id="Trazado_62" data-name="Trazado 62" d="M48.68,34.05a1.159,1.159,0,0,1-.98.71,2.123,2.123,0,0,1-.87-.29c-.78-.39-1.41-.74-1.89-1.03-.33-.21-.58-.5-.44-.9s.53-.46.91-.41c.56.08,1.26.21,2.11.41a2.066,2.066,0,0,1,.86.34,1.19,1.19,0,0,1,.3,1.17h0Z" fill="#FFFFFF"/>
      <path id="Trazado_63" data-name="Trazado 63" d="M20.73,34.28c.52.16.4.71.12,1.05-.11.13-.31.34-.59.62q-1.005,1.02-1.98,2.07c-.31.33-.75.87-1.21.85-.43-.02-.77-.04-.99-.41-.6-1.01.17-1.61.97-2,.16-.08.36-.28.56-.4.97-.61,1.72-1.09,2.24-1.45a1.869,1.869,0,0,1,.78-.35h.1Z" fill="#FFFFFF"/>
      <path id="Trazado_64" data-name="Trazado 64" d="M43.34,38.57l-.03.03a1.171,1.171,0,0,1-1.78-.19c-.22-.26-.44-.53-.66-.8-.37-.46-.41-.86-.13-1.19s.68-.37,1.2-.09c.3.16.6.33.9.5a1.171,1.171,0,0,1,.51,1.72c0,.01-.01.02-.02.03h0Z" fill="#FFFFFF"/>
      <path id="Trazado_65" data-name="Trazado 65" d="M24.24,37.47a1.9,1.9,0,0,1-.13.76c-.15.4-.29.75-.42,1.04a1.427,1.427,0,0,0-.08.22,4.889,4.889,0,0,1-.74,1.6.951.951,0,0,1-1.3.27.085.085,0,0,1-.05-.03c-.41-.37-.79-.97-.4-1.5.62-.84,1.26-1.63,1.92-2.4a.814.814,0,0,1,1.04-.19.25.25,0,0,1,.16.24h0Z" fill="#FFFFFF"/>
      <path id="Trazado_66" data-name="Trazado 66" d="M35.96,39.47c-.1-.6.43-.85.93-.88a.277.277,0,0,1,.09.01c.54.17,1.79,1.47,1.5,2.08-.34.71-1.17,1.18-1.82.55a3.305,3.305,0,0,1-.7-1.77h0Z" fill="#FFFFFF"/>
      <path id="Trazado_67" data-name="Trazado 67" d="M26.99,39.03c.15-.23.41-.45.68-.33a.853.853,0,0,1,.57.85,18.272,18.272,0,0,1-.07,2.21,1,1,0,0,1-1.78.48c-.47-.5-.31-1.06-.09-1.7a7.59,7.59,0,0,1,.68-1.51h0Z" fill="#FFFFFF"/>
      <path id="Trazado_68" data-name="Trazado 68" d="M32.54,39.54a.4.4,0,0,1,.13.16l.36.76a.639.639,0,0,1,.04.1s.05.21.16.6a1.248,1.248,0,0,1-.16,1.1c-.2.37-.72.39-1.1.34a1.008,1.008,0,0,1-.85-1.03,5.369,5.369,0,0,1,.15-1.89.284.284,0,0,1,.08-.11.865.865,0,0,1,1.18-.02h0Z" fill="#FFFFFF"/>
    </g>
  </g>
</svg>
