<?xml version="1.0" encoding="UTF-8"?>
<svg id="Capa_1" xmlns="http://www.w3.org/2000/svg" version="1.1" viewBox="0 0 311.81 56.69">
  <!-- Generator: Adobe Illustrator 30.2.1, SVG Export Plug-In . SVG Version: 2.1.1 Build 1)  -->
  <defs>
    <style>
      .st0 {
        stroke: #4d815b;
      }

      .st0, .st1, .st2, .st3 {
        stroke-miterlimit: 10;
      }

      .st0, .st1, .st2, .st3, .st4, .st5 {
        fill: #c09f59;
      }

      .st1 {
        stroke: #517f7d;
      }

      .st2 {
        stroke: #4e7f74;
      }

      .st3 {
        stroke: #4e7c64;
      }

      .st4 {
        font-family: HalyardDisplayMedium, 'Halyard Display';
        font-size: 27.75px;
      }
    </style>
  </defs>
  <text class="st4" transform="translate(57.68 36.04)"><tspan x="0" y="0">Instituto Epigenético™</tspan></text>
  <g>
    <path class="st3" d="M31.6,16.57c.53.09.69-.35.82-.75.47-1.43.77-2.4.89-2.92.14-.57-.44-1.08-.92-1.16-.48-.08-1.19.22-1.24.8-.04.54-.07,1.56-.08,3.06,0,.42,0,.88.53.97M27.91,16.13c.36-.06.45-.68.41-.96-.11-.76-.07-1.35-.05-2.24.05-1.65-2.27-1.58-2.13.02.03.33.1.66.22.99.27.75.47,1.28.59,1.61.17.47.49.66.95.59"/>
    <path class="st0" d="M23.16,17.1c.05.07.13.1.22.1h.51c.14,0,.26-.09.29-.23.13-.55-.1-1.1-.36-1.6-.05-.09-.09-.19-.11-.29-.15-.56-.66-2.16-1.39-2.2-.68-.03-1.11.24-1.29.81-.13.4.02.74.31,1.11.81,1.04,1.42,1.8,1.82,2.3"/>
    <path class="st2" d="M35.09,18.55c.72-.52,1.11-1.37,1.65-2.03.13-.16.55-.71,1.28-1.68.17-.22.3-.45.4-.7.03-.08.04-.18,0-.26-.25-.69-.67-1.12-1.46-.97-.05,0-.09.03-.13.06-.31.27-.52.5-.62.72-.27.56-.53,1.2-.79,1.92-.12.34-.32.71-.43.93-.16.31-.57,1.19-.47,1.5.06.2.19.36.4.5.05.03.12.03.17,0"/>
    <path class="st0" d="M20.89,19.8c.2-.32.15-.61-.13-.89-.72-.71-1.49-1.51-2.31-2.42-.33-.36-.63-.64-.9-.86-.38-.3-.68-.24-1.15-.08-.55.18-.67,1.1-.31,1.51.13.15.26.27.38.36.6.44,1.3.84,2,1.34.49.35,1.88,1.42,2.37,1.1.03-.02.05-.04.06-.06"/>
    <path class="st1" d="M36.68,21.19c.24.23.5.26.78.07.66-.43,1.2-.81,1.62-1.12.18-.14.48-.34.9-.6.18-.11.47-.32.88-.62.85-.63,1.63-1.17,2.33-1.63.12-.08.21-.22.27-.41.37-1.29-1.08-1.9-1.93-1.04-1.55,1.57-2.34,2.37-2.37,2.4-.77.82-1.6,1.59-2.39,2.4-.14.15-.19.3-.13.45.01.03.03.06.05.08"/>
    <path class="st3" d="M28.89,22.72c.02.18.14.76.36.88.13.07.29,0,.3-.15,0,0,0-.02,0-.05,0-.03,0-.06,0-.09-.15-1.78-.25-3.32-.32-4.64-.02-.37-.14-1.17-.47-1.4-.32-.23-.62-.22-.89.04-.46.43-.27.92-.09,1.54.23.8.37,1.44.6,2.1.12.35.25.85.4,1.49.01.06.04.12.08.19.01.02.02.05.03.08M31.38,21.56c.18-.52.44-1.33.77-2.42.17-.56.32-1.13-.23-1.52-.48-.33-1.06.04-1.11.57-.06.55-.1,1.17-.13,1.86-.02.54-.06,1.06-.11,1.55-.05.54-.09,1.06-.1,1.55,0,.14,0,.27.03.39.02.11.12.18.22.15.24-.08.29-.53.37-.84.11-.42.16-.89.3-1.29M28.12,23.96c.09-.08.11-.21.06-.32-.77-1.71-1.2-2.67-1.3-2.87-.21-.45-.37-.8-.46-1.06-.13-.38-.37-.8-.61-1.21-.22-.39-.61-.51-1.02-.3-.35.18-.61.63-.37.97.45.64.75.99,1.11,1.58.53.87,1.26,1.61,1.82,2.46.15.22.31.47.49.73.06.09.19.11.27.03h0"/>
    <path class="st2" d="M31.89,24.18c.1-.04.19-.11.28-.23.27-.36.58-.79.92-1.28.43-.63.91-1.2,1.38-1.81.19-.24.35-.5.49-.77.05-.1.06-.22.02-.33-.13-.33-.56-.85-.96-.62-.43.24-.55.52-.78,1.04-.29.64-.5,1.13-.62,1.47-.03.09-.08.21-.15.34-.14.3-.22.58-.36.86-.15.29-.48.92-.42,1.22.02.09.12.15.21.12"/>
    <path class="st0" d="M18.94,23.15c.08-.21-.15-.4-.31-.49-.43-.24-.99-.52-1.66-.84-2.38-1.11-3.91-1.82-4.61-2.14-.5-.23-.88-.16-1.29.15-.52.39-.55,1.09-.06,1.55.23.22.52.27.87.42.53.22,1.21.35,1.68.51.36.12.81.17,1.12.26,1.24.36,2.35.66,3.32.91.43.11.77.11.93-.33"/>
    <path class="st1" d="M37.59,24.67s.1,0,.16,0c.51-.12,1.05-.26,1.63-.45.69-.22,1.22-.38,1.61-.49.99-.28,2.06-.6,3.2-.95.21-.07,1.03-.29,2.45-.67.32-.09.52-.15.61-.19.37-.16.84-.23,1.09-.53.16-.2.43-.61.35-.89-.15-.6-.81-1.01-1.39-.87-.31.07-.59.17-.84.28-.62.29-1.52.69-2.68,1.2-1.5.66-2.79,1.22-3.87,1.68-.42.18-.82.37-1.21.56-.41.21-.83.36-1.29.59-.07.04-.1.12-.08.2l.15.44c.02.05.06.09.11.1"/>
    <path class="st3" d="M22.5,20.16c-.21.05-.61.29-.71.5-.16.35-.06.72.27.95.45.31,1.02.66,1.48.99,1,.72,1.6,1.15,1.82,1.29.15.1.49.3,1.02.6.03.02.05.03.08.05.17.14.31.25.43.32.1.06.22.03.28-.06.1-.14-.08-.36-.2-.46-.36-.3-.62-.53-.76-.69-.45-.49-1.05-1.13-1.8-1.9-.67-.69-1.2-1.19-1.59-1.49-.11-.09-.22-.12-.31-.1"/>
    <path class="st2" d="M32.61,24.84c-.04.07,0,.16.09.19.24.07.64-.22.92-.4.9-.57,1.7-1.07,2.41-1.5.36-.23.56-.45.59-.84.03-.34-.13-.55-.47-.65-.55-.16-.88.14-1.21.51-.5.57-.86.99-1.1,1.24-.16.18-.26.29-.3.33-.21.24-.41.46-.61.68-.14.15-.24.3-.31.44"/>
    <path class="st3" d="M26.52,25.91c.03-.13-.04-.25-.14-.29-.21-.08-.41-.16-.59-.22-.05-.02-.62-.29-1.72-.81-.39-.19-.83-.41-1.31-.67-.33-.18-.77-.4-1.33-.66-.47-.22-.83-.16-1.1.18-.19.24-.15.53-.1.81.05.23.29.35.48.41.6.19,1.24.36,1.93.51.21.04.47.17.71.22.8.2,1.6.41,2.4.61.22.06.42.08.61.06.08,0,.13-.06.15-.15"/>
    <path class="st2" d="M36.9,24.29c-.59-.28-1.11-.04-1.69.32-.67.42-1.23.75-1.69.98-.13.07-.39.27-.37.42.01.09.1.16.2.16.21,0,.45,0,.67-.05.6-.12,1.36-.25,2.27-.39.22-.03.42-.1.59-.19.35-.19.25-.84.14-1.14-.02-.05-.06-.1-.11-.12"/>
    <path class="st0" d="M18.36,27.51c.09-.23.08-.44-.03-.64-.02-.03-.04-.05-.06-.07-.21-.15-.4-.23-.56-.22-1.36.01-2.73-.12-4.08-.24-.69-.06-1.76-.11-3.19-.14-.35,0-.66-.02-.94-.03-.56-.03-.87-.04-.94-.04-.49,0-.8.04-.91.09-.46.21-.71.78-.5,1.26.12.27.3.65.57.69.12.02.27.02.44.02,1.07-.04,2.12-.06,3.16-.07.33,0,1.29-.07,2.9-.19.5-.04,1.69-.1,3.58-.17.29-.01.47-.06.53-.15.02-.02.03-.05.04-.08"/>
    <path class="st1" d="M46.77,27.61c.19.2.52.22.76.26,1.32.18,2.52.28,3.6.31.44.01.8.04,1.02-.31.27-.43.31-.79.04-1.24-.22-.38-.59-.55-1.11-.52-1.34.09-2.28.16-2.82.22-.42.05-.83.12-1.22.22-.18.05-.29.12-.34.31-.07.26-.07.48,0,.67.01.03.03.06.05.08"/>
    <path class="st3" d="M19.67,27.24c0,.54.4.84.91.8,1.53-.13,3.23-.3,5.1-.52.17-.02.66-.09.66-.31,0-.22-.49-.28-.66-.3-1.87-.2-3.57-.36-5.1-.48-.52-.04-.91.27-.91.81"/>
    <path class="st1" d="M34.38,27.48c.66-.05,1.31.03,2.26.13.27.03.45.04.53.05.49.02.87.06,1.33.06.36,0,.84.05,1.12.06.09,0,.84.03,2.24.08.22,0,.68.04,1.37.09.43.03.88.05,1.37.04.33,0,.64-.23.68-.59.06-.51-.08-.89-.68-.91-.94-.02-2.02.1-2.9.09-.59,0-1.51.04-2.75.13-.78.06-2.26.15-4.44.27-.15,0-.27.11-.31.25v.02c-.04.13.06.25.19.24"/>
    <path class="st3" d="M20.34,30.1c-.27.76.39,1.37,1.12,1.03,1.14-.52,2.18-.97,3.29-1.56.53-.29,1.11-.57,1.73-.84.1-.04.12-.18.03-.25-.09-.08-.23-.1-.4-.08-.64.08-1.31.31-1.97.46-1.65.39-2.73.66-3.24.81-.14.04-.32.16-.52.35-.02.02-.04.05-.05.08"/>
    <path class="st1" d="M33.83,28.66c-.01.09.05.19.15.23.32.14.59.27.81.38.42.22.69.35.8.38.36.12.7.34,1.12.5,1.09.41,1.75.67,1.97.77,1.23.57,2.44,1.09,3.62,1.58.32.13.58.09.8-.13.92-.93-.44-1.4-1.09-1.56-.83-.21-1.7-.53-2.39-.72-.43-.12-.92-.27-1.46-.44-1.28-.41-2.62-.8-4-1.16-.19-.05-.3,0-.32.17"/>
    <path class="st3" d="M27.08,29.53c-.09-.05-.2-.02-.31.06-.7.54-1.5,1.08-2.38,1.63-.54.34-.93.59-1.17.77-.64.47-1.01.75-1.13.84-.17.13-.22.31-.17.55.07.3.19.66.54.72.26.04.49-.02.69-.19.37-.31.74-.63,1.12-1.06.4-.44.84-.89,1.31-1.35.29-.28.6-.64.92-.99.24-.26.44-.41.63-.7.07-.11.06-.25-.04-.3"/>
    <path class="st1" d="M33.09,29.83c0,.11.05.22.15.32.22.24.56.57,1.02,1.01.4.37.69.75,1.08,1.1.2.18.46.44.78.78.04.04.31.31.81.81.69.68,1.5,1.36,2.06,1.88.07.06.15.1.24.1.2,0,.42-.03.66-.13.08-.03.15-.09.18-.18.21-.55-.11-.95-.51-1.25-.42-.31-1.45-1.05-3.09-2.22-.52-.37-1.17-.88-1.56-1.16-.45-.31-.92-.75-1.42-1.06-.11-.07-.2-.11-.27-.12-.06-.01-.12.04-.12.1"/>
    <path class="st2" d="M28.22,30.57c0-.07-.06-.12-.13-.12-.08,0-.15.04-.21.12-.25.3-.58.73-1.01,1.29-.2.25-.31.48-.5.7-.15.18-.29.35-.39.51-.24.37-.59.86-1.05,1.47-.02.03-.04.07-.06.1-.08.17-.17.31-.27.44-.28.35-.42.82,0,1.12.19.14.38.21.55.23.4.03.72-.51.87-.83.55-1.21.99-2.19,1.34-2.96.21-.45.48-1.06.83-1.83.03-.06.04-.15.05-.25"/>
    <path class="st1" d="M32.06,30.55c-.12-.01-.21.1-.19.22.04.21.12.43.24.67.35.71.7,1.43,1.05,2.16.27.56.47,1.12.72,1.59.29.54.6,1.18.94,1.9.09.19.25.44.39.55.18.14.68.05.86,0,.03,0,.05-.02.08-.04.36-.32.2-.9-.04-1.24-.48-.67-.91-1.33-1.3-1.98-.1-.16-.35-.52-.77-1.07-.66-.86-1.25-1.79-1.77-2.6-.06-.09-.12-.14-.2-.15"/>
    <path class="st0" d="M19.15,31.27c0-.29-.13-.47-.42-.54-.2-.05-.55.03-.74.09-1.07.32-1.82.54-2.25.65-.94.23-2.12.54-3.56.93-.13.04-.28.08-.45.14-.35.12-.52.16-.73.38-.43.47-.44.95-.03,1.46.41.51,1.27.36,1.78.1,1.13-.56,2.36-1.13,3.66-1.69.44-.19.78-.35,1.03-.49.55-.3,1.04-.49,1.54-.75.1-.05.17-.16.17-.28"/>
    <path class="st2" d="M29.23,30.89c-.06.02-.11.07-.14.15-.1.25-.17.53-.21.82,0,.03-.01.06-.02.08-.24.7-.44,1.36-.59,1.98-.22.92-.53,1.76-.77,2.59-.14.51-.14.89.28,1.22.11.09.24.12.4.11.59-.05.81-.31.86-.88.1-1.05.16-1.7.19-1.94.11-.89.13-1.97.21-2.93.03-.37.03-.72,0-1.06,0-.11-.11-.18-.21-.16M30.76,34.5c.03.61.06,1.26.12,1.95.05.62.09,1.76.79,1.94.11.03.19.03.25.01.54-.2.74-.57.62-1.12-.06-.27-.15-.81-.27-1.16-.17-.49-.27-1.03-.38-1.46-.33-1.22-.64-2.36-.93-3.43-.04-.14-.1-.24-.18-.31-.07-.06-.18-.03-.22.05-.05.11-.08.23-.09.37,0,.02,0,.04,0,.07.19,1.01.28,2.04.27,3.1,0,0,0,.02,0,.02,0,0,0,0,0,0,0-.01,0-.02,0-.03,0,0,0,0,0,0,0,0,0,0,0,0"/>
    <path class="st1" d="M44.5,32.54c-.14.39.11.69.44.9.48.3,1.11.64,1.89,1.03.41.2.7.3.87.29.39-.02.84-.31.98-.71.14-.4-.01-.9-.3-1.17-.13-.12-.41-.23-.86-.34-.85-.2-1.55-.34-2.11-.41-.38-.05-.77.02-.91.41"/>
    <path class="st3" d="M20.63,34.28c-.23.03-.49.15-.78.35-.52.36-1.27.84-2.24,1.45-.2.13-.41.32-.56.4-.79.4-1.57,1-.97,2,.22.37.56.39.99.41.45.02.9-.52,1.21-.85.64-.71,1.3-1.4,1.98-2.07.29-.29.48-.5.59-.62.29-.34.4-.89-.12-1.05-.03,0-.06-.01-.1,0"/>
    <path class="st1" d="M40.75,36.42c-.28.34-.24.74.13,1.19.22.27.43.54.66.8.52.62,1.12.68,1.78.19.01,0,.02-.02.03-.03,0,0,.01-.02.02-.03.36-.74.19-1.31-.51-1.72-.3-.17-.6-.34-.9-.5-.52-.28-.92-.25-1.2.09"/>
    <path class="st2" d="M24.24,37.47c0-.1-.07-.2-.16-.24-.43-.18-.77-.12-1.04.19-.66.76-1.3,1.56-1.92,2.4-.39.53-.01,1.13.4,1.5.02.01.03.03.05.03.51.26.95.17,1.3-.27.28-.36.53-.89.74-1.6.02-.07.05-.15.08-.22.13-.29.27-.64.42-1.04.1-.26.14-.51.13-.76"/>
    <path class="st1" d="M36.89,38.59c-.5.02-1.03.28-.93.88.1.55.25,1.34.7,1.77.65.62,1.48.16,1.82-.55.29-.6-.96-1.9-1.5-2.08-.03-.01-.06-.01-.09-.01"/>
    <path class="st2" d="M27.67,38.69c-.28-.12-.54.1-.68.33-.23.36-.45.86-.68,1.51-.22.64-.38,1.19.09,1.7.63.68,1.6.41,1.78-.48.05-.26.07-.99.07-2.21,0-.41-.19-.69-.57-.85"/>
    <path class="st1" d="M32.54,39.54c-.4-.3-.8-.29-1.18.02-.04.03-.06.07-.08.11-.2.56-.18,1.26-.15,1.89.02.52.31.96.85,1.03.38.05.9.03,1.1-.34.21-.39.28-.63.16-1.1-.11-.4-.16-.6-.16-.6-.01-.03-.03-.06-.04-.1l-.36-.76c-.03-.06-.08-.12-.13-.16"/>
    <path class="st5" d="M32.39,11.73c.48.08,1.06.59.92,1.16-.13.52-.43,1.5-.89,2.92-.13.4-.28.84-.82.75-.53-.09-.54-.55-.53-.97,0-1.5.04-2.52.08-3.06.05-.58.76-.88,1.24-.8h0Z"/>
    <path class="st5" d="M27.91,16.13c-.46.08-.78-.12-.95-.59-.12-.32-.32-.86-.59-1.61-.12-.33-.19-.66-.22-.99-.15-1.61,2.17-1.67,2.13-.02-.03.9-.07,1.49.05,2.24.04.28-.05.9-.41.96h0Z"/>
    <path class="st5" d="M23.16,17.1c-.41-.49-1.01-1.26-1.82-2.3-.29-.37-.43-.71-.31-1.11.18-.57.61-.84,1.29-.81.73.04,1.24,1.64,1.39,2.2.03.1.06.2.11.29.25.5.49,1.05.36,1.6-.03.13-.15.23-.29.23h-.51c-.09,0-.17-.04-.22-.1h0Z"/>
    <path class="st5" d="M35.09,18.55c-.05.04-.12.04-.17,0-.2-.14-.34-.3-.4-.5-.1-.31.31-1.19.47-1.5.11-.22.31-.59.43-.93.26-.72.52-1.36.79-1.92.1-.21.31-.45.62-.72.04-.03.08-.06.13-.06.79-.16,1.21.28,1.46.97.03.08.03.18,0,.26-.1.25-.24.48-.4.7-.72.96-1.15,1.52-1.28,1.68-.54.66-.92,1.51-1.65,2.03h0Z"/>
    <path class="st5" d="M20.83,19.87c-.49.32-1.88-.75-2.37-1.1-.7-.5-1.4-.9-2-1.34-.13-.09-.25-.22-.38-.36-.35-.4-.24-1.32.31-1.51.47-.16.77-.21,1.15.08.27.22.57.5.9.86.83.9,1.6,1.71,2.31,2.42.28.28.33.58.13.89-.01.03-.04.05-.06.06h0Z"/>
    <path class="st5" d="M36.63,21.1c-.05-.16,0-.31.13-.45.79-.81,1.61-1.58,2.39-2.4.03-.04.82-.84,2.37-2.4.85-.86,2.3-.25,1.93,1.04-.06.2-.15.33-.27.41-.7.46-1.48,1-2.33,1.63-.41.3-.7.51-.88.62-.41.26-.71.46-.9.6-.41.32-.95.69-1.62,1.12-.28.18-.55.16-.78-.07-.02-.02-.04-.05-.05-.08h0Z"/>
    <path class="st5" d="M28.86,22.64c-.04-.07-.07-.13-.08-.19-.15-.64-.28-1.13-.4-1.49-.23-.67-.36-1.31-.6-2.1-.18-.62-.36-1.12.09-1.54.27-.25.57-.26.89-.04.33.23.45,1.03.47,1.4.07,1.32.17,2.86.32,4.64,0,.03,0,.06,0,.09,0,.03,0,.04,0,.05-.01.14-.17.22-.3.15-.22-.13-.34-.7-.36-.88,0-.03-.01-.05-.03-.08h0Z"/>
    <path class="st5" d="M31.38,21.56c-.14.4-.19.87-.3,1.29-.08.31-.13.76-.37.84-.1.03-.2-.04-.22-.15-.02-.12-.03-.25-.03-.39.01-.49.05-1.01.1-1.55.05-.49.09-1,.11-1.55.03-.69.07-1.31.13-1.86.06-.53.63-.91,1.11-.57.55.38.4.96.23,1.52-.33,1.09-.58,1.9-.77,2.42h0Z"/>
    <path class="st5" d="M28.12,23.96h0c-.08.08-.21.06-.27-.03-.18-.26-.34-.51-.49-.73-.56-.84-1.29-1.58-1.82-2.46-.36-.6-.66-.95-1.11-1.58-.24-.34.02-.8.37-.97.41-.21.8-.09,1.02.3.24.42.48.83.61,1.21.09.26.24.61.46,1.06.1.2.53,1.16,1.3,2.87.05.11.02.24-.06.32h0Z"/>
    <path class="st5" d="M31.89,24.18c-.09.03-.19-.02-.21-.12-.06-.29.27-.92.42-1.22.14-.28.22-.57.36-.86.06-.14.11-.25.15-.34.12-.34.33-.83.62-1.47.24-.52.36-.8.78-1.04.41-.23.84.29.96.62.04.11.03.23-.02.33-.14.27-.3.53-.49.77-.47.61-.94,1.18-1.38,1.81-.34.49-.64.92-.92,1.28-.09.12-.18.19-.28.23h0Z"/>
    <path class="st5" d="M18.94,23.15c-.16.44-.51.44-.93.33-.97-.25-2.07-.55-3.32-.91-.32-.09-.77-.14-1.12-.26-.47-.16-1.15-.29-1.68-.51-.35-.15-.64-.2-.87-.42-.49-.46-.46-1.16.06-1.55.41-.31.79-.38,1.29-.15.7.32,2.23,1.03,4.61,2.14.67.31,1.23.59,1.66.84.16.09.39.28.31.49h0Z"/>
    <path class="st5" d="M37.59,24.67c-.05-.01-.1-.05-.11-.1l-.15-.44c-.03-.08,0-.16.08-.2.46-.24.88-.39,1.29-.59.39-.2.8-.38,1.21-.56,1.08-.46,2.37-1.02,3.87-1.68,1.16-.51,2.06-.91,2.68-1.2.25-.12.53-.21.84-.28.57-.14,1.23.28,1.39.87.07.28-.19.69-.35.89-.25.3-.72.37-1.09.53-.09.04-.29.1-.61.19-1.42.38-2.24.61-2.45.67-1.15.35-2.22.67-3.2.95-.39.11-.92.27-1.61.49-.57.18-1.11.33-1.63.45-.05.01-.11.01-.16,0h0Z"/>
    <path class="st5" d="M22.5,20.16c.09-.02.19,0,.31.1.4.3.93.8,1.59,1.49.75.77,1.35,1.41,1.8,1.9.15.16.4.39.76.69.12.1.3.32.2.46-.06.09-.19.11-.28.06-.11-.07-.25-.18-.43-.32-.02-.02-.05-.04-.08-.05-.53-.3-.87-.5-1.02-.6-.21-.14-.82-.57-1.82-1.29-.47-.33-1.03-.68-1.48-.99-.33-.23-.43-.6-.27-.95.1-.21.5-.44.71-.5h0Z"/>
    <path class="st5" d="M32.61,24.84c.07-.15.17-.3.31-.44.2-.22.4-.44.61-.68.04-.04.14-.15.3-.33.24-.26.6-.67,1.1-1.24.33-.38.66-.68,1.21-.51.34.1.5.32.47.65-.03.39-.23.61-.59.84-.7.44-1.5.94-2.41,1.5-.28.18-.68.46-.92.4-.08-.02-.12-.11-.09-.19h0Z"/>
    <path class="st5" d="M26.52,25.91c-.02.1-.07.15-.15.15-.18.02-.38,0-.61-.06-.8-.21-1.6-.41-2.4-.61-.24-.06-.5-.18-.71-.22-.69-.15-1.33-.32-1.93-.51-.19-.06-.43-.18-.48-.41-.06-.28-.1-.57.1-.81.27-.34.64-.4,1.1-.18.55.26.99.47,1.33.66.48.26.92.49,1.31.67,1.09.52,1.67.79,1.72.81.18.07.37.14.59.22.11.04.17.17.14.29h0Z"/>
    <path class="st5" d="M36.9,24.29c.05.03.09.07.11.12.11.29.21.95-.14,1.14-.17.09-.37.16-.59.19-.91.14-1.67.27-2.27.39-.21.04-.46.06-.67.05-.1,0-.19-.07-.2-.16-.02-.16.24-.36.37-.42.46-.24,1.02-.57,1.69-.98.58-.36,1.11-.6,1.69-.32h0Z"/>
    <path class="st5" d="M18.32,27.59c-.06.09-.23.14-.53.15-1.89.08-3.08.14-3.58.17-1.61.13-2.58.19-2.9.19-1.04.01-2.09.04-3.16.07-.17,0-.31,0-.44-.02-.27-.04-.45-.42-.57-.69-.22-.48.04-1.05.5-1.26.12-.05.42-.08.91-.09.06,0,.38.01.94.04.28.01.59.02.94.03,1.43.03,2.5.08,3.19.14,1.35.12,2.72.25,4.08.24.17,0,.36.07.56.22.03.02.05.04.06.07.11.2.12.41.03.64-.01.03-.02.05-.04.08h0Z"/>
    <path class="st5" d="M46.72,27.53c-.08-.18-.08-.41,0-.67.05-.18.16-.26.34-.31.39-.1.8-.17,1.22-.22.54-.06,1.48-.13,2.82-.22.52-.03.88.14,1.11.52.27.45.22.81-.04,1.24-.22.35-.59.33-1.02.31-1.08-.03-2.28-.14-3.6-.31-.24-.03-.57-.05-.76-.26-.02-.02-.04-.05-.05-.08h0Z"/>
    <path class="st5" d="M26.35,27.21c0,.22-.49.29-.66.31-1.87.22-3.57.39-5.1.52-.52.04-.91-.26-.91-.8,0-.54.39-.84.91-.81,1.53.11,3.23.27,5.1.48.17.02.66.08.66.3h0Z"/>
    <path class="st5" d="M34.38,27.48c-.13,0-.23-.11-.19-.24v-.02c.05-.14.17-.24.32-.25,2.18-.12,3.66-.21,4.44-.27,1.24-.1,2.16-.14,2.75-.13.88.01,1.96-.11,2.9-.09.6.02.74.4.68.91-.04.37-.35.59-.68.59-.49,0-.95-.01-1.37-.04-.69-.05-1.15-.08-1.37-.09-1.4-.05-2.15-.07-2.24-.08-.28-.01-.76-.06-1.12-.06-.46,0-.84-.04-1.33-.06-.08,0-.26-.02-.53-.05-.94-.1-1.6-.18-2.26-.13h0Z"/>
    <path class="st5" d="M20.39,30.02c.2-.19.38-.31.52-.35.5-.15,1.58-.42,3.24-.81.66-.16,1.32-.38,1.97-.46.17-.02.31,0,.4.08.09.07.07.21-.03.25-.62.27-1.2.55-1.73.84-1.11.59-2.15,1.04-3.29,1.56-.73.34-1.4-.27-1.12-1.03.01-.03.03-.06.05-.08h0Z"/>
    <path class="st5" d="M33.83,28.66c.02-.17.13-.22.32-.17,1.38.36,2.71.74,4,1.16.54.17,1.02.32,1.46.44.7.19,1.56.51,2.39.72.65.17,2.01.64,1.09,1.56-.21.22-.48.26-.8.13-1.18-.48-2.39-1.01-3.62-1.58-.22-.1-.88-.36-1.97-.77-.42-.16-.75-.37-1.12-.5-.12-.04-.38-.17-.8-.38-.21-.11-.48-.24-.81-.38-.1-.04-.16-.14-.15-.23h0Z"/>
    <path class="st5" d="M27.08,29.53c.09.04.11.18.04.3-.19.29-.39.44-.63.7-.32.35-.63.7-.92.99-.47.45-.91.9-1.31,1.35-.38.42-.75.75-1.12,1.06-.2.17-.43.23-.69.19-.35-.06-.47-.42-.54-.72-.06-.24,0-.42.17-.55.12-.09.5-.37,1.13-.84.24-.18.63-.44,1.17-.77.88-.55,1.68-1.1,2.38-1.63.12-.09.22-.11.31-.06h0Z"/>
    <path class="st5" d="M33.09,29.83c0-.06.06-.11.12-.1.07.01.16.05.27.12.51.3.97.74,1.42,1.06.39.27,1.04.78,1.56,1.16,1.64,1.17,2.67,1.91,3.09,2.22.41.3.72.7.51,1.25-.03.08-.1.15-.18.18-.24.09-.46.13-.66.13-.09,0-.17-.04-.24-.1-.56-.52-1.38-1.2-2.06-1.88-.5-.5-.77-.77-.81-.81-.32-.34-.58-.6-.78-.78-.39-.35-.68-.73-1.08-1.1-.46-.43-.8-.77-1.02-1.01-.1-.11-.15-.21-.15-.32h0Z"/>
    <path class="st5" d="M28.22,30.57c0,.1-.02.18-.05.25-.35.77-.62,1.38-.83,1.83-.35.76-.79,1.75-1.34,2.96-.15.32-.47.87-.87.83-.17-.01-.35-.09-.55-.23-.41-.3-.28-.77,0-1.12.1-.13.19-.27.27-.44.02-.04.04-.07.06-.1.46-.61.81-1.1,1.05-1.47.11-.16.24-.34.39-.51.19-.22.31-.45.5-.7.43-.55.76-.98,1.01-1.29.06-.07.13-.11.21-.12.07,0,.14.05.13.12h0Z"/>
    <path class="st5" d="M32.06,30.55c.08.01.15.06.2.15.51.81,1.11,1.73,1.77,2.6.42.55.68.9.77,1.07.39.66.82,1.32,1.3,1.98.24.34.4.93.04,1.24-.02.02-.05.04-.08.04-.18.06-.69.15-.86,0-.13-.11-.29-.36-.39-.55-.34-.72-.66-1.35-.94-1.9-.25-.47-.44-1.03-.72-1.59-.35-.73-.7-1.45-1.05-2.16-.12-.24-.19-.46-.24-.67-.02-.12.07-.24.19-.22h0Z"/>
    <path class="st5" d="M19.15,31.27c0,.12-.07.22-.17.28-.5.27-.99.45-1.54.75-.24.13-.59.3-1.03.49-1.31.56-2.53,1.12-3.66,1.69-.52.26-1.37.41-1.78-.1-.41-.51-.4-.99.03-1.46.2-.22.38-.25.73-.38.17-.06.32-.11.45-.14,1.44-.38,2.62-.69,3.56-.93.43-.11,1.18-.32,2.25-.65.19-.06.54-.14.74-.09.29.07.42.25.42.54h0Z"/>
    <path class="st5" d="M29.23,30.89c.1-.03.2.05.21.16.03.34.03.69,0,1.06-.07.96-.1,2.05-.21,2.93-.03.24-.09.89-.19,1.94-.05.57-.27.82-.86.88-.16.01-.29-.02-.4-.11-.42-.33-.42-.72-.28-1.22.24-.83.55-1.68.77-2.59.15-.62.34-1.28.59-1.98,0-.03.02-.06.02-.08.04-.29.11-.56.21-.82.03-.08.08-.13.14-.15h0Z"/>
    <path class="st5" d="M30.74,34.5s0,.02,0,.03c0,0,0,0,0,0,0,0,0-.02,0-.02.01-1.06-.08-2.1-.27-3.1,0-.02,0-.04,0-.07,0-.14.04-.26.09-.37.04-.08.15-.11.22-.05.08.07.14.17.18.31.29,1.07.61,2.21.93,3.43.12.43.22.97.38,1.46.12.35.21.89.27,1.16.13.55-.08.93-.62,1.12-.05.02-.14.02-.25-.01-.7-.18-.74-1.32-.79-1.94-.05-.68-.09-1.33-.12-1.95,0,0,0,0,0,0,0,0,0,0,0,0h0Z"/>
    <path class="st5" d="M48.68,34.05c-.14.4-.59.69-.98.71-.17.01-.47-.09-.87-.29-.78-.39-1.41-.74-1.89-1.03-.33-.21-.58-.5-.44-.9.14-.39.53-.46.91-.41.56.08,1.26.21,2.11.41.44.1.73.22.86.34.28.27.44.77.3,1.17h0Z"/>
    <path class="st5" d="M20.73,34.28c.52.16.4.71.12,1.05-.11.13-.31.34-.59.62-.67.68-1.33,1.37-1.98,2.07-.31.33-.75.87-1.21.85-.43-.02-.77-.04-.99-.41-.6-1.01.17-1.61.97-2,.16-.08.36-.28.56-.4.97-.61,1.72-1.09,2.24-1.45.29-.2.55-.32.78-.35.03,0,.07,0,.1,0h0Z"/>
    <path class="st5" d="M43.34,38.57s-.02.02-.03.03c-.66.49-1.26.42-1.78-.19-.22-.26-.44-.53-.66-.8-.37-.46-.41-.86-.13-1.19.28-.34.68-.37,1.2-.09.3.16.6.33.9.5.7.4.87.97.51,1.72,0,.01-.01.02-.02.03h0Z"/>
    <path class="st5" d="M24.24,37.47c.01.24-.03.5-.13.76-.15.4-.29.75-.42,1.04-.03.07-.06.14-.08.22-.21.71-.46,1.24-.74,1.6-.35.44-.78.53-1.3.27-.02,0-.04-.02-.05-.03-.41-.37-.79-.97-.4-1.5.62-.84,1.26-1.63,1.92-2.4.27-.31.62-.38,1.04-.19.1.04.16.13.16.24h0Z"/>
    <path class="st5" d="M35.96,39.47c-.1-.6.43-.85.93-.88.03,0,.06,0,.09.01.54.17,1.79,1.47,1.5,2.08-.34.71-1.17,1.18-1.82.55-.45-.43-.6-1.21-.7-1.77h0Z"/>
    <path class="st5" d="M26.99,39.03c.15-.23.41-.45.68-.33.38.16.57.44.57.85,0,1.21-.02,1.95-.07,2.21-.18.9-1.15,1.16-1.78.48-.47-.5-.31-1.06-.09-1.7.23-.65.45-1.15.68-1.51h0Z"/>
    <path class="st5" d="M32.54,39.54c.06.04.1.1.13.16l.36.76s.03.06.04.1c0,0,.05.21.16.6.13.47.05.71-.16,1.1-.2.37-.72.39-1.1.34-.54-.08-.83-.52-.85-1.03-.02-.63-.05-1.33.15-1.89.02-.04.04-.08.08-.11.38-.32.77-.32,1.18-.02h0Z"/>
  </g>
</svg>